<?xml version="1.0" encoding="utf-8"?>
<!-- Generator: Adobe Illustrator 16.2.0, SVG Export Plug-In . SVG Version: 6.00 Build 0)  -->
<!DOCTYPE svg PUBLIC "-//W3C//DTD SVG 1.1//EN" "http://www.w3.org/Graphics/SVG/1.1/DTD/svg11.dtd">
<svg version="1.1" id="Layer_1" xmlns="http://www.w3.org/2000/svg" xmlns:xlink="http://www.w3.org/1999/xlink" x="0px" y="0px"
	 width="512px" height="512px" viewBox="0 0 512 512" enable-background="new 0 0 512 512" xml:space="preserve">
<g id="_x23_000000ff">
	<g id="XMLID_1_">
		<g>
			<path fill="#626262" d="M475.44,272.03c0.27,9.88-3.98,19.54-10.921,26.479c-7.71,7.59-15.21,15.41-23.029,22.9
				c-13.07,12.12-35.65,12.21-48.37-0.49c-28.49-28.31-56.9-56.7-85.351-85.04c-0.06,67.39,0.061,134.771-0.06,202.16
				c0.19,12.89-8.76,24.45-20.42,29.24c-5.4,2.43-11.38,3.22-17.25,3.189c-12.35-0.05-24.7,0.07-37.05-0.06
				c-10.95-0.16-21.78-5.24-28.59-13.86c-4.39-5.5-6.38-12.6-6.34-19.58c-0.04-67.029,0-134.069-0.02-201.1
				c-26.9,26.81-53.79,53.63-80.71,80.42c-2.85,2.82-5.57,5.84-8.9,8.12c-13.57,9.479-34.03,7.8-45.42-4.42
				c-7.91-8.07-16.09-15.87-23.85-24.09c-12.44-13.431-11.53-36.431,1.66-49.041c60.77-60.9,121.67-121.68,182.49-182.54
				c3.72-3.64,7.21-7.68,11.89-10.12c10.63-5.72,24.13-5.74,34.85-0.27c4.51,2.23,8.16,5.74,11.641,9.31
				c60.829,60.85,121.689,121.68,182.52,182.54C471.17,252.63,475.51,262.2,475.44,272.03z"/>
		</g>
		<g>
		</g>
	</g>
</g>
</svg>
