<?xml version="1.0" encoding="utf-8"?>
<!-- Generator: Adobe Illustrator 16.2.0, SVG Export Plug-In . SVG Version: 6.00 Build 0)  -->
<!DOCTYPE svg PUBLIC "-//W3C//DTD SVG 1.1//EN" "http://www.w3.org/Graphics/SVG/1.1/DTD/svg11.dtd">
<svg version="1.1" id="Layer_1" xmlns="http://www.w3.org/2000/svg" xmlns:xlink="http://www.w3.org/1999/xlink" x="0px" y="0px"
	 width="1242px" height="410px" viewBox="0 0 1242 410" enable-background="new 0 0 1242 410" xml:space="preserve">
<path fill="#CD5C03" d="M31.667,2.678c18.25-5.347,39.534,7.57,39.997,24.42c1.65,13.305-9.604,26.518-24.64,28.943
	C31.4,59.382,14.04,50.289,10.169,36.595C5.109,22.621,15.423,6.269,31.667,2.678z"/>
<path fill="#CD5C03" d="M202.001,88.248c11.557-16.71,34.049-27.016,56.311-25.742c15.834,0.529,30.71,6.995,41.948,16.571
	c-13.385,12.388-27.125,24.497-40.707,36.715c-1.668-0.979-3.32-1.959-4.988-2.923c-1.456,1.477-5.556,3.623-3.107,5.844
	c3.906,4.322,8.788,7.928,12.517,12.405c12.923,14.083,21.213,31.694,21.568,49.866c0.888,28.024-10.191,56.175-30.587,77.78
	c-16.208,17.611-38.488,30.73-62.968,37.85c-32.114,9.141-68.134,7.431-98.828-4.974c-28.74-11.549-52.617-32.175-66.092-57.218
	c-13.757-25.118-16.758-54.543-8.521-81.434c7.9-26.549,26.859-50.378,52.387-66.264c36.907-23.626,87.714-28.57,129.894-13.446
	c-7.989,15.529-16.421,30.871-24.355,46.414c-17.238-5.129-36.41-5.532-53.506,0.203c-21.09,6.854-38.434,22.103-46.014,40.647
	c-6.409,15.404-6.125,32.875,0.941,48.077c8.466,18.638,26.805,33.698,48.765,39.577c23.521,6.806,50.576,2.471,70.104-10.791
	c19.724-12.963,31.581-34.63,30.464-56.221c-0.869-11.02-9.8-19.538-18.214-26.999C189.877,137.024,187.391,108.283,202.001,88.248z
	"/>
<path fill="#CD5C03" d="M8.536,64.449c19.545-0.046,39.073,0,58.618-0.015c0.018,6.544,0.053,13.087-0.053,19.648
	c-26.239,16.072-45.66,40.414-54.039,67.46c-1.971,5.86-2.822,11.938-4.403,17.859C8.376,134.428,8.643,99.439,8.536,64.449z"/>
<path fill="#86858A" d="M1053.25,61.384c3.727,0.026,7.454,0.055,11.217,0.082c-0.036,48.91,0.016,97.821-0.036,146.757
	c-3.638,0.027-7.277,0.165-10.879,0.436C1052.822,159.583,1053.408,110.456,1053.25,61.384z"/>
<path fill="#CD5C03" d="M586.944,91.49c16.884-25.459,44.134-33.911,65.827-18.802c-1.776,16.71-3.87,33.34-5.664,50.077
	c-9.744-7.362-22.26-8.531-31.367,1.577c-11.487,12.608-16.227,34.399-18.659,54.779c-3.229,30.434-3.07,62.007,1.635,92.059
	c3.088,17.527,9.087,36.169,20.556,43.834c9,6.383,19.155,3.398,28.281-0.764c1.083,16.687,2.396,33.31,3.338,49.999
	c-16.245,8.908-34.974,9.671-50.984-0.787c-15.997-10.817-26.86-33.998-32.72-58.534c-8.574-34.914-9.336-72.904-7.775-109.718
	C561.525,157.683,568.839,118.418,586.944,91.49z"/>
<path fill="#CD5C03" d="M680.448,85.023c17.36-23.45,44.541-25.896,64.582-9.293c-1.652,17.119-3.641,34.156-5.361,51.274
	c-9.533-9.375-22.19-14.374-32.896-6.793c-11.77,8.724-13.509,35.078-5.449,49.616c9.283,17.066,23.485,25.541,32.984,42.336
	c22.243,35.433,23.344,97.983,1.207,134.013c-19.244,30.134-51.482,31.141-75.022,12.964c1.722-17.091,3.339-34.213,5.061-51.329
	c8.627,7.362,18.444,11.305,28.298,11.794c7.243,0.132,15.195-3.318,19.72-12.556c6.623-14.509,5.113-35.703-2.466-48.719
	c-8.256-14.783-20.025-23.37-28.776-37.336c-11.593-17.362-19.581-41.303-19.67-66.464
	C662.393,129.123,667.843,102.359,680.448,85.023z"/>
<path fill="#86858A" d="M1122.358,65.84c5.982-2.527,8.86,10.595,7.475,17.824c-0.305,6.847-5.754,13.314-9.567,7.636
	C1116.322,84.234,1116.411,70.241,1122.358,65.84z"/>
<path fill="#CD5C03" d="M503.528,68.068c11.343,0.325,22.686,0.082,34.049,0.135c-0.055,99.914,0.104,199.825-0.09,299.737
	c-11.396-0.298-22.793,0.19-34.19-0.271C503.617,267.785,503.156,167.926,503.528,68.068z"/>
<path fill="#86858A" d="M797.577,77.009c8.771-11.984,21.997-12.771,32.221-4.839c-0.871,6.956-1.668,13.913-2.379,20.924
	c-6.533-5.325-15.089-7.745-21.462-0.571c-9.269,10.354-11.273,29.401-11.379,45.814c0.034,16.384,1.793,35.648,11.004,46.135
	c6.516,7.255,15.073,4.729,21.871-0.187c0.587,6.631,1.172,13.233,1.811,19.862c-10.42,8.83-24.78,8.477-33.55-4.808
	c-10.474-15.816-12.783-39.702-12.8-61.221C783.357,116.271,786.498,92.25,797.577,77.009z"/>
<path fill="#86858A" d="M1083.39,89.697c3.516-2.608,7.14-4.837,10.885-6.604c-0.145,8.396-0.145,16.82-0.091,25.217
	c3.375,0,6.766,0.027,10.173,0.027c-0.016,6.332-0.034,12.662-0.016,19.02c-3.409,0-6.8,0-10.174,0.026
	c0.317,18.072-0.729,36.275,0.569,54.266c0.335,7.334,5.395,8.285,9.158,7.143c0,6.604,0.126,13.181,0.305,19.757
	c-4.564,1.141-9.715,3.532-13.851-0.923c-5.412-5.788-6.316-16.796-6.781-26.088c-0.371-17.959-0.104-35.974-0.086-53.936
	c-2.095-0.109-4.189-0.219-6.25-0.299c0-6.277,0-12.554,0-18.831c2.096-0.215,4.207-0.407,6.336-0.596
	C1083.428,101.816,1083.39,95.757,1083.39,89.697z"/>
<path fill="#86858A" d="M857.74,107.061c8.183-3.18,16.9,4.237,20.558,15.567c5.804,17.175,6.195,37.719,3.461,56.331
	c-1.792,12.175-6.46,24.591-14.346,29.456c-7.505,4.89-16.631-0.219-21.144-10.3c-6.902-14.943-7.721-34.481-6.405-52.146
	C841.142,129.857,846.27,110.891,857.74,107.061z"/>
<path fill="#86858A" d="M907.731,122.385c2.982-6.548,6.196-14.32,11.824-15.624c5.484-2.038,10.879,3.288,13.524,10.435
	c3.853,10.436,4.279,22.824,4.422,34.539c-0.034,18.857,0,37.711-0.054,56.571c-3.709,0-7.402,0.025-11.076,0.055
	c-0.16-20.734,0.21-41.467-0.177-62.199c-0.32-7.961-1.973-19.455-8.54-19.508c-6.48,2.199-8.684,13.478-8.609,22.39
	c0,19.753,0.087,39.506-0.017,59.263c-3.694,0-7.387,0.025-11.063,0.083c-0.284-33.37,0.479-66.738-0.427-100.077
	c3.214,0,6.426,0,9.674,0C907.373,113.011,907.556,117.684,907.731,122.385z"/>
<path fill="#86858A" d="M963.493,108.011c5.661-4.186,11.859-0.488,17.236,2.88c-0.445,6.277-0.994,12.527-1.596,18.777
	c-3.732-2.499-7.6-6.413-11.823-4.674c-4.903,3.396-4.988,15.162-0.517,19.346c5.076,5.57,11.521,9.729,13.989,19.266
	c3.816,14.155,2.484,33.641-6.337,42.796c-7.032,6.901-15.943,3.641-22.584-2.744c0.642-6.167,1.296-12.337,1.901-18.533
	c4.046,3.235,8.362,7.772,13.172,6.522c6.106-1.846,6.89-15.924,2.076-20.841c-4.363-5.243-10.065-8.369-12.904-16.112
	C950.018,139.749,952.732,116.162,963.493,108.011z"/>
<path fill="#86858A" d="M1156.282,122.602c3.302-8.994,9.127-18.613,16.615-15.814c8.876,3.37,11.896,18.967,12.659,31.305
	c0.995,23.339,0.249,46.815,0.409,70.238c-3.711-0.025-7.386-0.025-11.06,0c-0.161-20.731,0.227-41.492-0.177-62.197
	c-0.342-7.907-1.956-19.345-8.489-19.481c-6.515,2.091-8.718,13.45-8.643,22.364c-0.035,19.753,0.069,39.532-0.035,59.289
	c-3.691,0-7.385,0.025-11.061,0.055c-0.284-33.341,0.461-66.736-0.408-100.049c3.197,0.027,6.406,0.027,9.637,0.027
	C1155.907,113.093,1156.123,117.848,1156.282,122.602z"/>
<path fill="#86858A" d="M1202.564,132.386c2.271-12.065,7.772-25.027,16.688-26.222c6.089-0.788,10.17,6.874,13.58,13.394
	c0.051-3.748,0.122-7.498,0.229-11.221c3.197,0,6.39-0.027,9.64-0.027c-0.904,31.735,0.091,63.584-0.531,95.348
	c-0.641,15.162-2.256,32.989-11.131,42.252c-8.204,8.423-18.962,5.626-27.037-1.657c0.566-6.552,1.261-13.041,2.006-19.512
	c5.701,4.241,12.817,9.946,18.889,3.885c7.368-8.338,6.283-24.072,6.978-36.407c-2.504,5.433-4.792,12.092-9.231,14.234
	c-6.746,4.023-13.991-3.066-17.063-12.198C1198.957,175.479,1198.872,152.571,1202.564,132.386z"/>
<path fill="#86858A" d="M996.886,108.337c3.689,0,7.42,0,11.13,0c0.143,20.896-0.301,41.847,0.212,62.715
	c0.533,7.118,1.547,16.899,6.958,18.802c6.128-0.052,9.376-10.761,9.553-18.941c0.211-20.785,0.109-41.599-0.017-62.359
	c3.778-0.192,7.543-0.244,11.342-0.244c0.142,33.339-0.372,66.68,0.282,99.994c-3.246,0-6.497,0-9.708,0.055
	c-0.215-5.137-0.357-10.273-0.409-15.378c-2.309,6.193-4.847,13.012-9.444,15.677c-5.219,3.804-11.732,0.325-14.789-6.958
	c-4.259-9.834-4.846-22.088-5.074-33.556C996.849,148.198,996.921,128.281,996.886,108.337z"/>
<path fill="#86858A" d="M1118.079,108.337c3.694,0,7.387,0,11.114,0c0.019,33.312,0.033,66.626-0.02,99.967
	c-3.708,0-7.4,0-11.076,0.025C1118.047,174.99,1118.098,141.649,1118.079,108.337z"/>
<path fill="#FFFFFF" d="M857.792,126.189c4.938-4.811,10.635,2.175,11.966,9.646c3.442,15.164,3.516,32.825-0.994,47.495
	c-1.793,6.524-7.383,11.523-11.467,6.415c-6.055-7.853-6.691-21.222-6.851-32.524C850.872,146.405,851.491,133.037,857.792,126.189z
	"/>
<path fill="#FFFFFF" d="M1219.979,125.755c3.427-1.875,6.995,1.766,8.68,6.25c3.34,8.396,2.45,18.64,2.629,28.013
	c0,8.643-0.069,18.587-4.368,25.134c-2.945,4.867-8.378,4.076-10.917-1.058c-5.024-9.62-5.08-22.988-4.419-34.672
	C1212.238,140.481,1213.926,129.504,1219.979,125.755z"/>
<path fill="#CD5C03" d="M8.696,197.599c4.331,25.757,16.723,50.845,37.707,69.56c6.355,5.892,13.331,11.238,20.786,16.041
	c-0.017,5.316-0.035,10.633-0.035,15.949c-19.545,0-39.073,0-58.618,0C8.643,265.294,8.34,231.438,8.696,197.599z"/>
<path fill="#86858A" d="M935.64,225.369c10.914-8.669,13.275,27.688,1.985,26.357C931.163,247.352,931.146,232.38,935.64,225.369z"
	/>
<path fill="#86858A" d="M1136.117,251.89c-8.54-3.126-7.776-24.43-0.231-29.292C1144.408,225.994,1145.152,249.336,1136.117,251.89z
	"/>
<path fill="#86858A" d="M786.111,227.216c11.716-0.026,23.431-0.107,35.146,0.054c0,7.011-0.018,14.048-0.052,21.086
	c-7.919-0.026-15.835,0.138-23.733-0.216c-0.464,12.01-0.197,24.046-0.232,36.085c7.527,0.028,15.055,0.028,22.601,0.028
	c-0.019,6.793-0.019,13.609,0,20.433c-7.527,0-15.073,0-22.601,0.026c-0.018,13.509-0.034,27.007-0.018,40.541
	c8.45,0.136,16.882-0.05,25.331,0.166c-0.033,6.926,0,13.88,0.127,20.811c-12.196,0.574-24.394,0.079-36.569,0.248
	C786.111,320.066,786.111,273.627,786.111,227.216z"/>
<path fill="#86858A" d="M1108.014,285.176c2.555-9.974,6.535-21.846,14.771-21.06c0.264,8.152,0.336,16.331,0.28,24.509
	c-7.488-2.962-12.62,8.072-13.065,18.317c-0.797,19.803-0.105,39.694-0.335,59.535c-3.728,0-7.437,0-11.113,0.022
	c-0.156-33.363,0.338-66.732-0.283-100.075c3.176,0.025,6.39,0.058,9.604,0.113C1107.838,272.729,1107.891,278.95,1108.014,285.176z
	"/>
<path fill="#86858A" d="M830.917,266.508c3.212,0,6.459-0.025,9.709-0.025c0.232,4.969,0.444,9.941,0.658,14.971
	c2.84-9.213,8.433-18.587,15.78-16.605c9.871,2.776,12.766,20.244,13.547,33.312c0.78,22.749,0.124,45.546,0.336,68.318
	c-3.763,0-7.527-0.026-11.272-0.107c0-20.685,0.267-41.387-0.09-62.037c-0.318-7.558-1.702-18.234-7.687-19.295
	c-6.052,0.356-9.053,10.813-9.266,18.889c-0.267,20.841,0,41.683-0.09,62.551c-3.744,0-7.488,0-11.22,0
	C831.077,333.162,831.856,299.791,830.917,266.508z"/>
<path fill="#86858A" d="M883.516,284.877c2.753-11.059,9.479-22.039,17.876-20.135c5.238,0.978,8.435,7.962,10.778,14.481
	c0.143-4.239,0.32-8.479,0.513-12.716c3.162-0.025,6.321-0.058,9.519-0.109c-0.518,27.904-0.126,55.87-0.216,83.774
	c-0.39,16.845-0.302,35.785-7.848,49.345c-7.79,13.229-21.854,12.278-30.764,2.203c0.835-6.47,1.616-12.988,2.309-19.488
	c5.556,5.933,13.687,11.059,19.705,3.703c6.406-8.972,5.218-23.511,6.071-35.464c-2.787,6.877-6.196,14.485-11.967,15.298
	c-7.862,1.384-13.864-9.213-16.402-19.539C878.388,326.667,878.6,304.305,883.516,284.877z"/>
<path fill="#86858A" d="M933.08,266.482c3.659,0,7.316,0,11.01,0c0.05,33.341-0.018,66.654,0.018,99.995c-3.711,0-7.421,0-11.113,0
	C933.029,333.137,932.852,299.791,933.08,266.482z"/>
<path fill="#86858A" d="M955.733,266.482c3.161-0.032,6.355-0.032,9.553-0.058c0.209,4.895,0.409,9.779,0.586,14.675
	c2.61-6.164,5.326-13.289,10.275-15.433c5.257-3.101,11.396,0.948,14.344,8.014c4.403,10.488,5.042,23.451,5.134,35.599
	c-0.054,19.075-0.037,38.12-0.037,57.198c-3.709,0-7.418,0-11.094,0c-0.125-20.055,0.126-40.105-0.089-60.166
	c-0.39-7.74-1.066-18.418-6.817-21.055c-6.499-1.332-9.924,9.997-10.277,18.313c-0.322,20.957-0.04,41.931-0.125,62.908
	c-3.71,0-7.419,0-11.113,0C955.857,333.137,956.499,299.791,955.733,266.482z"/>
<path fill="#86858A" d="M1010.624,277.92c3.48-8.613,10.086-14.893,16.863-13.232c5.54,1.058,9.98,7.608,12.251,15.133
	c4.137,13.369,4.721,28.642,3.926,43.206c-9.747-0.055-19.478-0.055-29.188,0.027c0.552,8.996,2.007,19.7,7.76,24.265
	c5.662,4.647,12.23,1.223,17.77-2.115c0.512,5.537,1.099,11.082,1.773,16.622c-7.704,7.477-18.57,9.948-26.36,1.551
	c-7.225-7.879-10.048-21.842-10.989-34.752C1003.238,311.399,1004.519,292.892,1010.624,277.92z"/>
<path fill="#86858A" d="M1056.106,279.576c3.393-9.398,10.227-16.628,17.485-14.917c5.7,1.032,10.158,7.878,12.443,15.595
	c4.014,13.29,4.598,28.372,3.783,42.8c-9.727-0.082-19.44-0.082-29.149-0.027c0.461,9.023,1.97,19.622,7.671,24.235
	c5.679,4.758,12.319,1.279,17.891-2.114c0.5,5.839,1.029,11.682,1.472,17.554c-6.991,5.024-15.368,8.502-22.811,3.528
	c-8.272-5.431-12.354-19.182-13.791-32.033C1049.13,315.882,1050.071,295.99,1056.106,279.576z"/>
<path fill="#86858A" d="M1130.506,266.508c3.695,0,7.369,0,11.096,0c0.052,33.315,0.019,66.629,0.019,99.97
	c-3.729-0.026-7.419,0-11.114,0C1130.506,333.162,1130.506,299.823,1130.506,266.508z"/>
<path fill="#86858A" d="M1152.465,267.023c3.266-0.436,6.569-0.65,9.872-0.678c0.193,4.917,0.392,9.834,0.586,14.754
	c2.61-6.194,5.358-13.343,10.368-15.46c5.289-3.047,11.484,1.084,14.359,8.312c4.011,9.676,4.814,21.523,5.008,32.743
	c0,19.919-0.053,39.865-0.017,59.783c-3.711,0-7.422,0-11.096,0c-0.126-20.001,0.125-39.974-0.091-59.973
	c-0.371-7.829-1.028-18.693-6.886-21.276c-6.497-1.218-9.854,10.19-10.229,18.506c-0.301,20.896-0.018,41.816-0.104,62.743
	c-3.712,0-7.421,0-11.112,0C1152.715,333.322,1153.956,300.093,1152.465,267.023z"/>
<path fill="#86858A" d="M1205.208,285.176c2.68-10.95,9.146-21.875,17.434-20.544c5.449,0.705,8.785,7.801,11.341,14.378
	c0.161-4.268,0.393-8.536,0.695-12.777c3.07,0.113,6.162,0.166,9.269,0.218c-0.518,30.601,0.086,61.191-0.304,91.793
	c-0.639,14.914-1.369,31.818-8.789,42.901c-8.058,11.689-21.195,10.141-29.751,0.545c0.87-6.385,1.596-12.794,2.218-19.236
	c5.7,5.19,13.35,10.896,19.493,3.89c6.709-8.587,5.45-23.4,6.641-35.3c-3.251,6.274-6.605,14.21-12.394,14.754
	c-7.578,1.062-13.438-8.752-15.94-18.727C1200.062,327.458,1200.328,304.767,1205.208,285.176z"/>
<path fill="#FFFFFF" d="M1020.087,284.688c2.786-3.97,7.827-3.422,10.136,1.301c2.857,5.383,3.107,12.633,3.694,19.24
	c-6.533,0.055-13.029,0.082-19.548-0.082C1015.469,297.999,1016.199,289.738,1020.087,284.688z"/>
<path fill="#FFFFFF" d="M1066.35,284.55c2.822-3.805,7.76-3.205,10.063,1.497c2.841,5.379,3.022,12.606,3.694,19.153
	c-6.516,0.083-13.047,0.11-19.545-0.03C1061.645,297.945,1062.337,289.548,1066.35,284.55z"/>
<path fill="#FFFFFF" d="M896.955,286.292c3.232-4.839,8.364-2.771,10.686,2.633c4.494,9.888,2.841,22.661,3.125,33.964
	c0.283,9.702-2.005,22.634-9.355,24.182c-8.024-1.896-10.116-16.083-10.508-26.515C890.723,308.844,890.992,294.852,896.955,286.292
	z"/>
<path fill="#FFFFFF" d="M1219.623,285.338c5.947-6.086,11.912,4.703,12.442,13.338c0.728,11.718,1.031,23.775-0.351,35.413
	c-1.015,8.34-7.318,16.573-12.662,10.729c-6.154-7.795-6.599-21.521-6.405-32.826
	C1213.144,302.51,1214.085,291.179,1219.623,285.338z"/>
<path fill="#86858A" d="M5.429,304.976c91.745-0.061,183.488,0,275.233-0.015c-0.053,34.242,0.177,68.485-0.107,102.729
	c-91.673-0.093-183.346-0.077-275.02,0C5.27,373.446,5.465,339.203,5.429,304.976z"/>
<path fill="#FFFFFF" d="M21.938,312.702c4.083-1.354,8.396-0.218,12.48,0.419c-0.39,1.758-0.799,3.513-1.189,5.286
	c-4.846-1.354-11.077-1.694-14.434,2.331c-4.402,5.875-4.544,14.361,0.249,20.113c3.426,3.824,9.498,3.249,14.185,1.896
	c0.213,1.307,0.621,3.903,0.816,5.193c-5.45,1.258-11.752,2.112-16.669-0.934c-7.261-4.275-8.576-12.886-7.527-19.912
	C10.506,320.878,14.892,314.598,21.938,312.702z"/>
<path fill="#FFFFFF" d="M47.946,312.391c5.679-1.585,12.231,1.165,14.895,5.735c4.528,7.461,4.508,16.928,0.212,24.468
	c-3.053,5.299-10.757,8.331-17.113,5.735c-7.687-3.063-9.871-11.363-9.783-18.094C36.266,323.179,39.425,314.646,47.946,312.391z"/>
<path fill="#FFFFFF" d="M102.819,324.112c-1.883-7.199,6.585-14.194,14.68-11.737c4.635,0.016,3.818,3.405,2.628,6.157
	c-3.976-1.043-10.189-2.521-11.787,2.222c-0.905,4.958,5.591,6.233,9.07,8.61c7.581,4.135,6.764,15.731-1.472,18.9
	c-4.51,1.774-9.41,0.436-13.758-0.962c0.355-1.818,0.727-3.62,1.101-5.424c3.389,0.837,7.136,3.199,10.668,1.444
	c4.154-1.555,3.887-7.522-0.16-9.108C109.228,331.789,103.298,329.458,102.819,324.112z"/>
<path fill="#FFFFFF" d="M175.586,312.391c7.899,0.031,15.818,0.015,23.735,0.015c0.053,1.759,0.106,3.529,0.16,5.317
	c-3.143,0.016-6.285,0.047-9.427,0.092c0.019,10.308-0.106,20.596,0.088,30.886c-1.952,0.079-3.887,0.143-5.821,0.218
	c0.035-10.368,0.035-20.734,0-31.104c-3.001-0.045-5.983-0.061-8.965-0.092C175.426,315.935,175.496,314.164,175.586,312.391z"/>
<path fill="#FFFFFF" d="M203.634,312.158c1.83,0.139,3.64,0.279,5.469,0.436c-0.018,12.092,0.018,24.185-0.018,36.278
	c-1.422,0-4.261,0-5.682,0.016C203.51,336.64,203.155,324.391,203.634,312.158z"/>
<path fill="#FFFFFF" d="M235.89,312.266c1.741,0.125,3.498,0.248,5.237,0.374c-0.195,12.078-0.017,24.155-0.089,36.232
	c-1.437,0-4.313,0-5.751,0c-4.775-9.217-9.817-18.311-13.989-27.744c-0.319,9.246-0.071,18.496-0.159,27.744
	c-1.314,0-3.977,0-5.291,0.016c-0.018-12.186-0.035-24.356,0-36.528c2.218,0.046,4.42,0.095,6.639,0.154
	c4.829,9.078,9.569,18.188,13.989,27.437C235.571,330.748,235.786,321.5,235.89,312.266z"/>
<path fill="#FFFFFF" d="M258.293,312.996c4.687-1.693,9.764-0.65,14.503,0.28c-0.336,1.773-0.655,3.56-0.958,5.331
	c-4.438-1.026-9.764-2.253-13.758,0.483c-6.622,4.476-6.603,13.243-3.674,19.491c2.201,4.726,8.788,6.357,13.989,4.647
	c-0.107-3.046-0.161-6.076-0.195-9.107c-1.42-0.016-4.26-0.063-5.681-0.079c-0.053-1.771-0.106-3.559-0.161-5.316
	c3.871-0.016,7.74-0.03,11.611-0.03c-0.035,6.188-0.072,12.357,0.035,18.543c-5.716,1.711-12.249,3.141-17.948,0.607
	c-7.581-3.032-9.763-11.083-9.567-17.736C246.72,323.241,250.252,315.329,258.293,312.996z"/>
<path fill="#FFFFFF" d="M71.237,312.422c1.598,0,4.793,0,6.391,0c4.864,9.078,10.084,18.048,13.74,27.574
	c-0.035-9.217-0.302-18.434-0.16-27.65c1.35,0.076,4.03,0.215,5.362,0.294c-0.338,12.078-0.072,24.172-0.142,36.263
	c-2.025-0.06-4.031-0.107-6.054-0.169c-4.634-9.561-10.048-18.841-14.185-28.602c0.408,9.575,0.177,19.166,0.232,28.756
	c-1.296,0-3.906-0.016-5.202-0.016C71.201,336.718,71.167,324.577,71.237,312.422z"/>
<path fill="#FFFFFF" d="M128.009,312.375c1.314,0,3.959,0.016,5.29,0.016c1.616,9.326-1.313,19.072,1.706,28.228
	c1.491,4.414,9.373,4.354,10.792-0.077c3.019-9.14-0.051-18.87,1.759-28.15c1.296,0,3.905-0.016,5.202-0.031
	c-0.267,8.534,0.569,17.099-0.443,25.604c-0.462,5.235-4.403,11.096-11.061,11.252c-5.805,0.776-11.095-3.141-12.107-8.005
	C126.855,331.743,128.488,321.965,128.009,312.375z"/>
<path fill="#FFFFFF" d="M159.466,348.872c0.338-12.154-0.586-24.356,0.444-36.467c1.315-0.015,3.959-0.046,5.273-0.06
	c0.069,10.382-0.124,20.779,0.104,31.18c4.439-0.094,8.896-0.048,13.333,0.077c-0.019,1.321-0.088,3.964-0.107,5.27
	C172.159,348.888,165.822,348.888,159.466,348.872z"/>
<path fill="#86858A" d="M47.644,318.08c4.545-2.502,9.888,0.823,11.078,4.896c2.148,6.313,2.397,14.317-2.948,19.493
	c-3.833,3.248-10.26,0.934-11.714-3.25C41.128,332.505,40.969,323.116,47.644,318.08z"/>
<path fill="#FFFFFF" d="M11.322,362.893c6.161-0.016,12.323-0.016,18.481,0c-0.017,1.337-0.036,4.025-0.052,5.363
	c-4.297-0.063-8.593,0-12.888,0.172c0.087,3.076,0.142,6.17,0.157,9.262c3.942,0,7.901,0,11.842,0
	c0.072,1.759,0.142,3.547,0.212,5.317c-4.029,0.048-8.059,0.063-12.07,0.093c-0.018,3.606,0,7.244,0,10.866
	c4.42,0,8.84,0,13.278,0.015c-0.018,1.338-0.035,4.026-0.053,5.38c-6.302,0-12.587,0-18.888-0.017
	C11.287,387.19,11.305,375.049,11.322,362.893z"/>
<path fill="#FFFFFF" d="M33.921,362.908c1.616-0.016,4.812-0.031,6.426-0.031c4.954,8.799,9.374,17.83,13.831,26.844
	c-0.249-8.953-0.338-17.905-0.231-26.858c1.295,0.03,3.923,0.061,5.236,0.078c-0.034,12.093-0.16,24.2,0.07,36.295
	c-2.057,0-4.099,0.016-6.141,0.03c-4.704-9.684-10.244-19.041-14.255-28.959c0.515,9.685,0.214,19.368,0.266,29.054
	c-1.313,0-3.906-0.032-5.201-0.032C33.921,387.19,33.904,375.049,33.921,362.908z"/>
<path fill="#FFFFFF" d="M72.019,364.493c5.236-2.705,11.52-1.958,17.095-0.684c-0.302,1.337-0.906,4.011-1.208,5.348
	c-4.722-1.337-10.581-2.284-14.503,1.135c-6.055,5.3-5.929,14.61-1.438,20.675c2.75,3.621,8.111,3.666,12.515,3.124
	c-0.018-3.156-0.018-6.313,0-9.452c-1.438-0.016-4.296-0.016-5.716-0.016c0.017-1.353,0.035-4.04,0.035-5.378
	c3.781,0,7.545,0,11.326,0.017c-0.515,6.17,1.208,12.807-0.797,18.714c-5.77,2.098-12.747,2.721-18.304-0.218
	c-5.858-2.938-7.882-9.248-8.237-14.768C62.432,376.105,64.793,368.178,72.019,364.493z"/>
<path fill="#FFFFFF" d="M94.298,362.877c1.419,0,4.26,0.031,5.681,0.031c0.053,12.078-0.196,24.14,0.16,36.219
	c-1.457,0.061-4.385,0.217-5.858,0.279C94.28,387.235,94.262,375.049,94.298,362.877z"/>
<path fill="#FFFFFF" d="M105.393,362.814c2.254,0.094,4.51,0.203,6.764,0.326c4.597,8.769,8.857,17.676,13.651,26.331
	c-0.709-8.843-0.498-17.719-0.514-26.595c1.33,0,3.993,0,5.307,0c0.018,12.172,0.018,24.327,0,36.483
	c-1.438,0.016-4.332,0.016-5.788,0.016c-5.04-9.592-10.331-19.121-14.556-29.037c0.656,9.683,0.301,19.382,0.319,29.067
	c-1.296-0.03-3.871-0.078-5.166-0.096C105.393,387.141,105.393,374.986,105.393,362.814z"/>
<path fill="#FFFFFF" d="M135.962,362.877c6.18,0,12.356,0,18.551,0c0,1.353,0.019,4.026,0.019,5.379
	c-4.297,0-8.575,0.016-12.87,0.031c0,3.125,0.018,6.264,0.018,9.402c3.993,0,7.988,0,11.982,0c0.019,1.354,0.019,4.043,0.035,5.381
	c-4.029,0-8.042,0-12.055,0.016c-0.017,3.62-0.017,7.242-0.017,10.88c4.474,0,8.965,0.015,13.438,0.045
	c-0.036,1.789-0.088,3.562-0.124,5.35c-6.284-0.032-12.568-0.017-18.854,0.062C135.803,387.25,135.998,375.063,135.962,362.877z"/>
<path fill="#FFFFFF" d="M158.686,362.893c6.142-0.016,12.302-0.016,18.462,0c-0.017,1.353-0.036,4.025-0.036,5.379
	c-4.226,0-8.432-0.016-12.64-0.078c-0.088,3.155-0.141,6.312-0.177,9.496c3.977-0.015,7.936,0,11.912,0
	c0.072,1.759,0.161,3.529,0.23,5.301c-4.029,0.05-8.059,0.08-12.089,0.109c-0.017,3.621-0.017,7.244,0,10.866
	c4.42,0,8.84,0,13.279,0c-0.017,1.353-0.035,4.041-0.052,5.378c-6.304,0.032-12.588,0.032-18.889,0
	C158.632,387.19,158.649,375.049,158.686,362.893z"/>
<path fill="#FFFFFF" d="M181.407,362.986c6.178-0.187,13.991-1.882,18.659,2.782c4.349,5.036,2.414,12.218-2.716,16.213
	c4.42,4.942,4.367,11.502,6.125,17.329c-1.456,0.033-4.35,0.065-5.805,0.08c-1.154-4.26-1.687-8.658-3.338-12.794
	c-1.171-2.749-4.793-2.098-7.384-2.564c-0.25,5.084,0.674,10.291-0.515,15.328c-1.296,0.016-3.871,0.046-5.167,0.076
	C181.337,387.282,181.089,375.143,181.407,362.986z"/>
<path fill="#FFFFFF" d="M206.971,362.877c1.404,0,4.244,0.016,5.665,0.016c0.071,12.062-0.053,24.109,0.071,36.17
	c-1.811,0.203-3.621,0.42-5.432,0.654C206.599,387.454,207.114,375.158,206.971,362.877z"/>
<path fill="#FFFFFF" d="M217.622,362.877c2.167,0,4.351,0,6.534,0.016c4.917,8.969,9.391,18.108,14.059,27.157
	c-0.904-9.032-0.604-18.11-0.604-27.173c1.296,0,3.907,0.016,5.202,0.016c0.071,12.094-0.124,24.202,0.125,36.295
	c-2.042,0.048-4.066,0.031-6.072,0.063c-4.545-9.217-9.711-18.203-13.723-27.623c-0.444,9.249-0.125,18.481-0.212,27.732
	c-1.332,0-3.977,0.016-5.31,0.016C217.605,387.204,217.605,375.049,217.622,362.877z"/>
<path fill="#FFFFFF" d="M249.95,369.594c4.438-6.965,15.072-8.598,22.954-5.44c-0.25,1.196-0.745,3.606-0.995,4.803
	c-4.669-0.917-10.261-2.083-14.272,0.961c-6.497,4.962-6.32,14.304-2.38,20.521c2.611,3.979,8.273,4.228,12.907,3.746
	c0.036-3.173,0.07-6.343,0.124-9.499c-1.491-0.046-4.455-0.123-5.93-0.17c0.055-1.756,0.107-3.514,0.179-5.253
	c3.764-0.017,7.562-0.017,11.344-0.032c0.088,6.249,0.104,12.498-0.036,18.762c-7.368,2.207-16.688,3.063-22.368-2.597
	C245.016,388.23,245.016,377.411,249.95,369.594z"/>
<path fill="#86858A" d="M187.054,367.386c3.816-0.204,9.569,0.249,9.657,4.708c1.438,5.177-4.633,8.085-9.764,7.307
	C186.947,375.39,186.965,371.382,187.054,367.386z"/>
</svg>
