<?xml version="1.0" encoding="utf-8"?>
<!-- Generator: Adobe Illustrator 16.2.0, SVG Export Plug-In . SVG Version: 6.00 Build 0)  -->
<!DOCTYPE svg PUBLIC "-//W3C//DTD SVG 1.1//EN" "http://www.w3.org/Graphics/SVG/1.1/DTD/svg11.dtd">
<svg version="1.1" id="Layer_1" xmlns="http://www.w3.org/2000/svg" xmlns:xlink="http://www.w3.org/1999/xlink" x="0px" y="0px"
	 width="164.91px" height="198.328px" viewBox="-145.82 -85.828 164.91 198.328"
	 enable-background="new -145.82 -85.828 164.91 198.328" xml:space="preserve">
<path fill="#CD5C03" d="M-132.789-85.041c10.28-3.44,22.271,4.87,22.53,15.71c0.93,8.56-5.41,17.06-13.88,18.62
	c-8.801,2.15-18.58-3.7-20.761-12.51C-147.749-72.211-141.939-82.731-132.789-85.041z"/>
<path fill="#CD5C03" d="M-36.839-29.991c6.51-10.75,19.18-17.38,31.721-16.56c8.92,0.34,17.299,4.5,23.629,10.66
	c-7.539,7.97-15.278,15.76-22.93,23.62c-0.939-0.63-1.87-1.26-2.811-1.88c-0.819,0.95-3.13,2.33-1.75,3.76
	c2.2,2.78,4.95,5.1,7.051,7.98c7.278,9.06,11.949,20.39,12.149,32.081c0.5,18.029-5.739,36.139-17.229,50.039
	c-9.13,11.33-21.68,19.77-35.471,24.35c-18.091,5.881-38.38,4.781-55.67-3.198c-16.189-7.431-29.641-20.701-37.229-36.812
	c-7.75-16.16-9.439-35.09-4.8-52.39c4.45-17.08,15.13-32.41,29.51-42.63c20.79-15.2,49.41-18.38,73.17-8.65
	c-4.5,9.99-9.25,19.86-13.72,29.86c-9.71-3.3-20.511-3.56-30.14,0.13c-11.882,4.41-21.65,14.22-25.921,26.15
	c-3.609,9.911-3.45,21.151,0.529,30.93c4.771,11.99,15.101,21.68,27.471,25.459c13.25,4.381,28.489,1.592,39.489-6.939
	C-28.68,57.629-22,43.69-22.63,29.799c-0.489-7.09-5.521-12.57-10.26-17.37C-43.669,1.389-45.069-17.101-36.839-29.991z"/>
<path fill="#CD5C03" d="M-145.819-45.301c11.011-0.03,22.011,0,33.021-0.01c0.01,4.21,0.03,8.42-0.03,12.64
	c-14.78,10.34-25.72,26-30.44,43.4c-1.109,3.77-1.59,7.68-2.479,11.49C-145.909-0.281-145.759-22.791-145.819-45.301z"/>
<path fill="#CD5C03" d="M-145.729,40.359c2.439,16.57,9.42,32.709,21.239,44.75c3.58,3.789,7.511,7.23,11.71,10.32
	c-0.011,3.42-0.021,6.84-0.021,10.26c-11.01,0-22.01,0-33.021,0C-145.759,83.908-145.929,62.129-145.729,40.359z"/>
</svg>
