<?xml version="1.0" encoding="utf-8"?>
<!-- Generator: Adobe Illustrator 16.2.0, SVG Export Plug-In . SVG Version: 6.00 Build 0)  -->
<!DOCTYPE svg PUBLIC "-//W3C//DTD SVG 1.1//EN" "http://www.w3.org/Graphics/SVG/1.1/DTD/svg11.dtd">
<svg version="1.1" id="Layer_1" xmlns="http://www.w3.org/2000/svg" xmlns:xlink="http://www.w3.org/1999/xlink" x="0px" y="0px"
	 width="1242px" height="410px" viewBox="0 0 1242 410" enable-background="new 0 0 1242 410" xml:space="preserve">
<path fill="#CD5C03" d="M31.667,2.678c18.25-5.347,39.534,7.57,39.997,24.42c1.65,13.305-9.604,26.518-24.64,28.943
	C31.4,59.382,14.04,50.289,10.169,36.595C5.109,22.621,15.423,6.269,31.667,2.678z"/>
<path fill="#CD5C03" d="M202.001,88.248c11.557-16.71,34.049-27.016,56.311-25.742c15.834,0.529,30.71,6.995,41.948,16.571
	c-13.385,12.388-27.125,24.497-40.707,36.715c-1.668-0.979-3.32-1.959-4.988-2.923c-1.456,1.477-5.556,3.623-3.107,5.844
	c3.906,4.322,8.788,7.928,12.517,12.405c12.923,14.083,21.213,31.694,21.568,49.866c0.888,28.024-10.191,56.175-30.587,77.78
	c-16.208,17.611-38.488,30.73-62.968,37.85c-32.114,9.142-68.134,7.432-98.828-4.973c-28.74-11.55-52.617-32.176-66.092-57.219
	c-13.757-25.117-16.758-54.543-8.521-81.434c7.9-26.549,26.859-50.378,52.387-66.264c36.907-23.626,87.714-28.57,129.894-13.446
	c-7.989,15.529-16.421,30.871-24.355,46.414c-17.238-5.129-36.41-5.532-53.506,0.203c-21.09,6.854-38.434,22.103-46.014,40.647
	c-6.409,15.404-6.125,32.875,0.941,48.077c8.466,18.638,26.805,33.697,48.765,39.576c23.521,6.807,50.576,2.472,70.104-10.791
	c19.724-12.963,31.581-34.629,30.464-56.22c-0.869-11.02-9.8-19.538-18.214-26.999C189.877,137.024,187.391,108.283,202.001,88.248z
	"/>
<path fill="#CD5C03" d="M8.536,64.449c19.545-0.046,39.073,0,58.618-0.015c0.018,6.544,0.053,13.087-0.053,19.648
	c-26.239,16.072-45.66,40.414-54.039,67.46c-1.971,5.86-2.822,11.938-4.403,17.859C8.376,134.428,8.643,99.439,8.536,64.449z"/>
<path fill="#86858A" d="M975.929,113.942c3.727,0.015,7.454,0.032,11.219,0.048c-0.037,28.659,0.016,57.318-0.037,85.992
	c-3.638,0.015-7.276,0.098-10.881,0.256C975.501,171.481,976.087,142.696,975.929,113.942z"/>
<path fill="#CD5C03" d="M509.527,131.583c16.887-14.917,44.144-19.87,65.841-11.017c-1.778,9.791-3.872,19.536-5.665,29.343
	c-9.747-4.314-22.266-4.999-31.375,0.923c-11.49,7.388-16.231,20.157-18.663,32.099c-3.23,17.832-3.071,36.332,1.635,53.942
	c3.088,10.269,9.089,21.193,20.56,25.685c9.002,3.739,19.159,1.991,28.288-0.448c1.082,9.778,2.397,19.519,3.338,29.298
	c-16.248,5.219-34.981,5.665-50.994-0.462c-16-6.337-26.866-19.921-32.727-34.299c-8.576-20.458-9.339-42.719-7.777-64.289
	C484.103,170.369,491.418,147.361,509.527,131.583z"/>
<path fill="#CD5C03" d="M603.049,127.793c17.363-13.74,44.55-15.174,64.595-5.445c-1.652,10.031-3.642,20.013-5.362,30.044
	c-9.535-5.493-22.194-8.422-32.901-3.981c-11.774,5.113-13.513,20.555-5.45,29.073c9.285,10,23.489,14.965,32.989,24.806
	c22.248,20.763,23.35,57.414,1.207,78.527c-19.246,17.656-51.491,18.246-75.037,7.596c1.723-10.015,3.341-20.048,5.061-30.076
	c8.629,4.313,18.449,6.624,28.305,6.91c7.244,0.077,15.198-1.944,19.725-7.357c6.625-8.5,5.112-20.919-2.467-28.548
	c-8.258-8.66-20.03-13.692-28.782-21.877c-11.596-10.173-19.585-24.201-19.673-38.944
	C584.991,153.634,590.441,137.952,603.049,127.793z"/>
<path fill="#86858A" d="M1045.05,116.553c5.983-1.48,8.861,6.208,7.477,10.444c-0.305,4.012-5.755,7.802-9.568,4.475
	C1039.014,127.331,1039.102,119.132,1045.05,116.553z"/>
<path fill="#CD5C03" d="M426.094,117.859c11.345,0.19,22.69,0.048,34.056,0.079c-0.055,58.545,0.104,117.087-0.09,175.63
	c-11.398-0.174-22.797,0.112-34.197-0.158C426.183,234.885,425.722,176.371,426.094,117.859z"/>
<path fill="#86858A" d="M720.202,123.098c8.773-7.022,22.003-7.483,32.228-2.835c-0.871,4.075-1.669,8.152-2.38,12.26
	c-6.534-3.12-15.091-4.538-21.465-0.335c-9.271,6.067-11.276,17.228-11.382,26.845c0.033,9.6,1.794,20.888,11.007,27.033
	c6.517,4.25,15.075,2.771,21.875-0.109c0.586,3.885,1.172,7.753,1.812,11.637c-10.423,5.175-24.785,4.968-33.559-2.816
	c-10.475-9.268-12.785-23.263-12.801-35.873C705.98,146.104,709.122,132.029,720.202,123.098z"/>
<path fill="#86858A" d="M1006.073,130.533c3.519-1.528,7.143-2.834,10.889-3.87c-0.146,4.919-0.146,9.856-0.092,14.777
	c3.376,0,6.768,0.015,10.176,0.015c-0.018,3.71-0.035,7.419-0.018,11.145c-3.408,0-6.8,0-10.176,0.015
	c0.318,10.589-0.729,21.256,0.57,31.797c0.334,4.297,5.396,4.855,9.16,4.186c0,3.87,0.125,7.723,0.305,11.576
	c-4.565,0.669-9.717,2.07-13.854-0.539c-5.413-3.393-6.317-9.842-6.782-15.287c-0.371-10.523-0.104-21.079-0.086-31.604
	c-2.096-0.063-4.19-0.128-6.251-0.175c0-3.678,0-7.356,0-11.033c2.096-0.127,4.208-0.239,6.337-0.35
	C1006.112,137.634,1006.073,134.083,1006.073,130.533z"/>
<path fill="#86858A" d="M780.379,140.707c8.183-1.864,16.901,2.483,20.561,9.122c5.806,10.063,6.196,22.101,3.462,33.007
	c-1.792,7.134-6.461,14.41-14.349,17.26c-7.506,2.866-16.635-0.128-21.149-6.035c-6.901-8.756-7.722-20.205-6.405-30.556
	C763.775,154.064,768.905,142.951,780.379,140.707z"/>
<path fill="#86858A" d="M830.379,149.686c2.983-3.837,6.196-8.391,11.827-9.155c5.485-1.194,10.881,1.926,13.525,6.114
	c3.854,6.115,4.28,13.374,4.423,20.238c-0.033,11.05,0,22.097-0.053,33.148c-3.709,0-7.403,0.014-11.078,0.032
	c-0.16-12.149,0.209-24.298-0.178-36.446c-0.32-4.664-1.973-11.399-8.541-11.43c-6.481,1.289-8.688,7.897-8.611,13.119
	c0,11.574,0.086,23.149-0.018,34.725c-3.693,0-7.388,0.014-11.064,0.048c-0.285-19.552,0.479-39.105-0.428-58.64
	c3.216,0,6.427,0,9.676,0C830.021,144.193,830.203,146.932,830.379,149.686z"/>
<path fill="#86858A" d="M886.152,141.263c5.663-2.453,11.861-0.286,17.239,1.688c-0.445,3.678-0.994,7.34-1.596,11.002
	c-3.733-1.464-7.601-3.757-11.826-2.738c-4.903,1.99-4.987,8.884-0.517,11.336c5.078,3.263,11.524,5.7,13.991,11.289
	c3.817,8.294,2.485,19.712-6.337,25.076c-7.034,4.044-15.946,2.133-22.589-1.608c0.642-3.613,1.296-7.229,1.901-10.859
	c4.046,1.896,8.363,4.554,13.175,3.821c6.106-1.082,6.892-9.33,2.076-12.211c-4.364-3.072-10.066-4.904-12.907-9.441
	C872.675,159.86,875.391,146.04,886.152,141.263z"/>
<path fill="#86858A" d="M1078.98,149.813c3.304-5.27,9.129-10.906,16.619-9.266c8.879,1.975,11.898,11.113,12.66,18.343
	c0.997,13.675,0.251,27.431,0.411,41.156c-3.712-0.014-7.389-0.014-11.063,0c-0.16-12.147,0.227-24.313-0.176-36.444
	c-0.344-4.633-1.957-11.335-8.492-11.415c-6.517,1.226-8.718,7.882-8.644,13.104c-0.035,11.574,0.068,23.164-0.035,34.741
	c-3.692,0-7.387,0.014-11.063,0.032c-0.285-19.536,0.461-39.104-0.408-58.624c3.198,0.016,6.408,0.016,9.639,0.016
	C1078.605,144.241,1078.822,147.027,1078.98,149.813z"/>
<path fill="#86858A" d="M1125.273,155.546c2.271-7.07,7.773-14.665,16.691-15.365c6.089-0.462,10.172,4.028,13.582,7.848
	c0.051-2.196,0.121-4.393,0.229-6.575c3.198,0,6.393-0.015,9.643-0.015c-0.904,18.594,0.091,37.256-0.531,55.868
	c-0.641,8.885-2.256,19.33-11.133,24.758c-8.207,4.936-18.967,3.298-27.043-0.971c0.566-3.838,1.261-7.642,2.007-11.433
	c5.702,2.485,12.819,5.826,18.893,2.276c7.368-4.887,6.284-14.106,6.979-21.333c-2.504,3.183-4.794,7.084-9.232,8.341
	c-6.747,2.357-13.995-1.797-17.067-7.148C1121.665,180.796,1121.579,167.374,1125.273,155.546z"/>
<path fill="#86858A" d="M919.552,141.455c3.69,0,7.421,0,11.133,0c0.143,12.244-0.301,24.52,0.211,36.748
	c0.533,4.171,1.55,9.902,6.961,11.017c6.13-0.03,9.379-6.305,9.555-11.098c0.211-12.18,0.109-24.375-0.018-36.539
	c3.779-0.113,7.544-0.143,11.346-0.143c0.141,19.534-0.373,39.071,0.281,58.59c-3.247,0-6.497,0-9.711,0.034
	c-0.215-3.011-0.355-6.021-0.408-9.012c-2.31,3.629-4.849,7.625-9.445,9.187c-5.22,2.228-11.734,0.189-14.792-4.078
	c-4.261-5.762-4.847-12.942-5.075-19.662C919.515,164.811,919.587,153.141,919.552,141.455z"/>
<path fill="#86858A" d="M1040.77,141.455c3.696,0,7.389,0,11.118,0c0.018,19.519,0.031,39.04-0.021,58.575
	c-3.708,0-7.4,0-11.079,0.015C1040.738,180.51,1040.789,160.974,1040.77,141.455z"/>
<path fill="#FFFFFF" d="M780.43,151.916c4.94-2.82,10.637,1.274,11.969,5.651c3.442,8.886,3.517,19.234-0.994,27.83
	c-1.793,3.822-7.385,6.752-11.47,3.76c-6.056-4.602-6.692-12.436-6.853-19.058C773.508,163.76,774.127,155.928,780.43,151.916z"/>
<path fill="#FFFFFF" d="M1142.691,151.66c3.428-1.099,6.995,1.035,8.682,3.663c3.34,4.919,2.451,10.922,2.629,16.414
	c0,5.064-0.068,10.892-4.368,14.728c-2.945,2.852-8.381,2.388-10.92-0.62c-5.024-5.637-5.081-13.47-4.419-20.316
	C1134.949,160.29,1136.637,153.857,1142.691,151.66z"/>
<path fill="#CD5C03" d="M8.696,197.599c4.331,25.756,16.723,50.844,37.707,69.56c6.355,5.892,13.331,11.237,20.786,16.041
	c-0.017,5.315-0.035,10.633-0.035,15.948c-19.545,0-39.073,0-58.618,0C8.643,265.294,8.34,231.438,8.696,197.599z"/>
<path fill="#86858A" d="M858.293,210.029c10.916-5.079,13.278,16.224,1.986,15.445C853.815,222.911,853.8,214.137,858.293,210.029z"
	/>
<path fill="#86858A" d="M1058.813,225.57c-8.543-1.833-7.779-14.316-0.232-17.165C1067.105,210.396,1067.85,224.072,1058.813,225.57
	z"/>
<path fill="#86858A" d="M708.734,211.112c11.718-0.016,23.435-0.063,35.152,0.03c0,4.109-0.018,8.231-0.051,12.356
	c-7.922-0.016-15.839,0.082-23.739-0.127c-0.463,7.039-0.195,14.09-0.23,21.144c7.526,0.017,15.058,0.017,22.604,0.017
	c-0.018,3.98-0.018,7.976,0,11.973c-7.527,0-15.076,0-22.604,0.016c-0.02,7.916-0.035,15.825-0.02,23.754
	c8.453,0.081,16.886-0.028,25.337,0.099c-0.033,4.058,0,8.133,0.127,12.194c-12.197,0.337-24.399,0.046-36.576,0.145
	C708.734,265.518,708.734,238.306,708.734,211.112z"/>
<path fill="#86858A" d="M1030.703,245.073c2.556-5.844,6.537-12.8,14.774-12.34c0.264,4.777,0.336,9.569,0.279,14.362
	c-7.489-1.736-12.621,4.729-13.066,10.732c-0.798,11.603-0.105,23.258-0.336,34.883c-3.728,0-7.438,0-11.116,0.013
	c-0.154-19.548,0.34-39.099-0.281-58.637c3.177,0.014,6.391,0.033,9.605,0.065C1030.527,237.78,1030.58,241.426,1030.703,245.073z"
	/>
<path fill="#86858A" d="M753.549,234.135c3.214,0,6.46-0.015,9.711-0.015c0.232,2.912,0.445,5.825,0.658,8.773
	c2.841-5.399,8.436-10.891,15.784-9.73c9.872,1.626,12.769,11.863,13.55,19.52c0.779,13.328,0.123,26.688,0.336,40.029
	c-3.764,0-7.528-0.015-11.275-0.062c0-12.121,0.268-24.252-0.09-36.351c-0.318-4.427-1.701-10.685-7.688-11.306
	c-6.054,0.209-9.057,6.337-9.27,11.068c-0.266,12.211,0,24.423-0.09,36.651c-3.744,0-7.489,0-11.221,0
	C753.709,273.191,754.488,253.638,753.549,234.135z"/>
<path fill="#86858A" d="M806.159,244.898c2.753-6.479,9.48-12.913,17.879-11.798c5.239,0.573,8.437,4.665,10.781,8.484
	c0.143-2.483,0.32-4.967,0.512-7.45c3.163-0.015,6.323-0.034,9.521-0.063c-0.518,16.351-0.125,32.737-0.215,49.086
	c-0.391,9.872-0.303,20.969-7.852,28.915c-7.79,7.751-21.857,7.193-30.77,1.29c0.836-3.79,1.617-7.611,2.309-11.418
	c5.559,3.476,13.69,6.481,19.71,2.169c6.407-5.257,5.22-13.776,6.073-20.78c-2.788,4.029-6.198,8.488-11.97,8.966
	c-7.864,0.81-13.868-5.399-16.405-11.451C801.029,269.386,801.242,256.282,806.159,244.898z"/>
<path fill="#86858A" d="M855.733,234.12c3.659,0,7.318,0,11.013,0c0.049,19.536-0.018,39.056,0.018,58.591
	c-3.712,0-7.422,0-11.116,0C855.683,273.176,855.505,253.638,855.733,234.12z"/>
<path fill="#86858A" d="M878.391,234.12c3.161-0.02,6.357-0.02,9.555-0.033c0.209,2.866,0.41,5.729,0.586,8.598
	c2.612-3.612,5.327-7.786,10.277-9.043c5.26-1.817,11.399,0.556,14.347,4.694c4.403,6.147,5.045,13.741,5.137,20.861
	c-0.055,11.178-0.037,22.336-0.037,33.514c-3.71,0-7.42,0-11.097,0c-0.125-11.75,0.125-23.499-0.09-35.252
	c-0.391-4.537-1.066-10.794-6.817-12.338c-6.502-0.78-9.926,5.856-10.279,10.729c-0.322,12.281-0.039,24.57-0.125,36.861
	c-3.712,0-7.422,0-11.116,0C878.516,273.176,879.156,253.638,878.391,234.12z"/>
<path fill="#86858A" d="M933.293,240.821c3.48-5.047,10.088-8.725,16.866-7.753c5.542,0.62,9.982,4.458,12.255,8.867
	c4.138,7.834,4.722,16.783,3.927,25.317c-9.75-0.031-19.482-0.031-29.193,0.015c0.551,5.271,2.006,11.544,7.761,14.219
	c5.663,2.722,12.231,0.716,17.773-1.24c0.512,3.245,1.1,6.494,1.773,9.741c-7.706,4.382-18.574,5.828-26.366,0.907
	c-7.227-4.615-10.049-12.798-10.991-20.361C925.906,260.438,927.186,249.595,933.293,240.821z"/>
<path fill="#86858A" d="M978.784,241.791c3.394-5.506,10.229-9.741,17.488-8.738c5.702,0.604,10.16,4.614,12.446,9.137
	c4.014,7.788,4.599,16.625,3.783,25.078c-9.729-0.046-19.443-0.046-29.154-0.015c0.461,5.286,1.97,11.497,7.672,14.2
	c5.681,2.788,12.322,0.749,17.895-1.238c0.5,3.421,1.029,6.845,1.473,10.286c-6.992,2.943-15.37,4.981-22.815,2.066
	c-8.273-3.182-12.355-11.239-13.794-18.77C971.807,263.066,972.748,251.41,978.784,241.791z"/>
<path fill="#86858A" d="M1053.2,234.135c3.696,0,7.37,0,11.098,0c0.053,19.521,0.02,39.041,0.02,58.577
	c-3.731-0.015-7.421,0-11.117,0C1053.2,273.191,1053.2,253.656,1053.2,234.135z"/>
<path fill="#86858A" d="M1075.164,234.437c3.266-0.256,6.569-0.381,9.873-0.396c0.193,2.88,0.393,5.762,0.586,8.644
	c2.611-3.63,5.36-7.818,10.371-9.059c5.29-1.785,11.486,0.636,14.362,4.87c4.011,5.669,4.813,12.611,5.009,19.187
	c0,11.671-0.053,23.357-0.018,35.028c-3.712,0-7.424,0-11.098,0c-0.127-11.718,0.125-23.421-0.092-35.14
	c-0.371-4.589-1.028-10.955-6.887-12.466c-6.499-0.717-9.857,5.97-10.232,10.842c-0.301,12.244-0.018,24.503-0.104,36.764
	c-3.712,0-7.422,0-11.113,0C1075.414,273.285,1076.654,253.815,1075.164,234.437z"/>
<path fill="#86858A" d="M1127.917,245.073c2.68-6.415,9.148-12.816,17.437-12.038c5.45,0.414,8.787,4.572,11.345,8.427
	c0.16-2.502,0.393-5.002,0.695-7.488c3.071,0.067,6.163,0.098,9.271,0.127c-0.52,17.932,0.086,35.856-0.305,53.787
	c-0.639,8.74-1.37,18.644-8.791,25.139c-8.061,6.849-21.2,5.942-29.756,0.319c0.869-3.741,1.596-7.496,2.217-11.272
	c5.702,3.042,13.353,6.386,19.498,2.28c6.711-5.032,5.45-13.713,6.643-20.684c-3.253,3.676-6.607,8.325-12.397,8.644
	c-7.58,0.623-13.44-5.128-15.942-10.972C1122.771,269.849,1123.037,256.555,1127.917,245.073z"/>
<path fill="#FFFFFF" d="M942.758,244.787c2.787-2.325,7.829-2.005,10.139,0.763c2.857,3.153,3.107,7.402,3.694,11.274
	c-6.535,0.031-13.032,0.048-19.552-0.048C938.14,252.587,938.87,247.747,942.758,244.787z"/>
<path fill="#FFFFFF" d="M989.03,244.708c2.823-2.23,7.762-1.879,10.065,0.876c2.842,3.151,3.021,7.385,3.695,11.223
	c-6.519,0.049-13.051,0.065-19.551-0.017C984.324,252.557,985.017,247.636,989.03,244.708z"/>
<path fill="#FFFFFF" d="M819.602,245.727c3.232-2.833,8.365-1.622,10.688,1.544c4.495,5.793,2.843,13.277,3.126,19.899
	c0.283,5.687-2.007,13.264-9.357,14.172c-8.025-1.112-10.117-9.425-10.51-15.535C813.367,258.941,813.638,250.743,819.602,245.727z"
	/>
<path fill="#FFFFFF" d="M1142.336,245.167c5.948-3.564,11.914,2.759,12.443,7.815c0.729,6.868,1.031,13.932-0.352,20.751
	c-1.014,4.89-7.317,9.712-12.664,6.287c-6.154-4.566-6.6-12.61-6.406-19.233C1135.855,255.23,1136.795,248.593,1142.336,245.167z"/>
<path fill="#86858A" d="M5.429,304.977c91.745-0.062,183.488,0,275.233-0.016c-0.053,34.242,0.177,68.484-0.107,102.729
	c-91.673-0.094-183.346-0.077-275.02,0C5.27,373.445,5.465,339.203,5.429,304.977z"/>
<path fill="#FFFFFF" d="M21.938,312.702c4.083-1.354,8.396-0.218,12.48,0.419c-0.39,1.758-0.799,3.513-1.189,5.286
	c-4.846-1.354-11.077-1.694-14.434,2.331c-4.402,5.875-4.544,14.361,0.249,20.113c3.426,3.823,9.498,3.248,14.185,1.896
	c0.213,1.308,0.621,3.903,0.816,5.192c-5.45,1.259-11.752,2.112-16.669-0.934c-7.261-4.275-8.576-12.886-7.527-19.912
	C10.506,320.878,14.892,314.598,21.938,312.702z"/>
<path fill="#FFFFFF" d="M47.946,312.391c5.679-1.584,12.231,1.166,14.895,5.735c4.528,7.461,4.508,16.929,0.212,24.468
	c-3.053,5.299-10.757,8.331-17.113,5.735c-7.687-3.063-9.871-11.363-9.783-18.095C36.266,323.18,39.425,314.646,47.946,312.391z"/>
<path fill="#FFFFFF" d="M102.819,324.111c-1.883-7.198,6.585-14.193,14.68-11.736c4.635,0.016,3.818,3.404,2.628,6.157
	c-3.976-1.043-10.189-2.521-11.787,2.222c-0.905,4.958,5.591,6.232,9.07,8.609c7.581,4.136,6.764,15.731-1.472,18.9
	c-4.51,1.774-9.41,0.437-13.758-0.962c0.355-1.817,0.727-3.62,1.101-5.424c3.389,0.837,7.136,3.199,10.668,1.444
	c4.154-1.555,3.887-7.522-0.16-9.108C109.228,331.789,103.298,329.458,102.819,324.111z"/>
<path fill="#FFFFFF" d="M175.586,312.391c7.899,0.031,15.818,0.016,23.735,0.016c0.053,1.759,0.106,3.529,0.16,5.316
	c-3.143,0.016-6.285,0.047-9.427,0.092c0.019,10.309-0.106,20.597,0.088,30.887c-1.952,0.078-3.887,0.143-5.821,0.218
	c0.035-10.368,0.035-20.733,0-31.104c-3.001-0.045-5.983-0.061-8.965-0.092C175.426,315.936,175.496,314.164,175.586,312.391z"/>
<path fill="#FFFFFF" d="M203.634,312.158c1.83,0.139,3.64,0.279,5.469,0.436c-0.018,12.092,0.018,24.186-0.018,36.278
	c-1.422,0-4.261,0-5.682,0.017C203.51,336.641,203.155,324.391,203.634,312.158z"/>
<path fill="#FFFFFF" d="M235.89,312.266c1.741,0.125,3.498,0.248,5.237,0.375c-0.195,12.077-0.017,24.154-0.089,36.231
	c-1.437,0-4.313,0-5.751,0c-4.775-9.218-9.817-18.312-13.989-27.744c-0.319,9.246-0.071,18.496-0.159,27.744
	c-1.314,0-3.977,0-5.291,0.017c-0.018-12.187-0.035-24.356,0-36.529c2.218,0.047,4.42,0.096,6.639,0.154
	c4.829,9.078,9.569,18.188,13.989,27.438C235.571,330.748,235.786,321.5,235.89,312.266z"/>
<path fill="#FFFFFF" d="M258.293,312.996c4.687-1.693,9.764-0.65,14.503,0.279c-0.336,1.773-0.655,3.561-0.958,5.332
	c-4.438-1.026-9.764-2.254-13.758,0.482c-6.622,4.477-6.603,13.243-3.674,19.491c2.201,4.726,8.788,6.356,13.989,4.647
	c-0.107-3.047-0.161-6.076-0.195-9.107c-1.42-0.016-4.26-0.063-5.681-0.079c-0.053-1.771-0.106-3.56-0.161-5.315
	c3.871-0.017,7.74-0.031,11.611-0.031c-0.035,6.188-0.072,12.357,0.035,18.543c-5.716,1.712-12.249,3.142-17.948,0.607
	c-7.581-3.031-9.763-11.082-9.567-17.736C246.72,323.241,250.252,315.329,258.293,312.996z"/>
<path fill="#FFFFFF" d="M71.237,312.422c1.598,0,4.793,0,6.391,0c4.864,9.078,10.084,18.049,13.74,27.574
	c-0.035-9.217-0.302-18.434-0.16-27.65c1.35,0.076,4.03,0.215,5.362,0.295c-0.338,12.077-0.072,24.172-0.142,36.262
	c-2.025-0.06-4.031-0.106-6.054-0.168c-4.634-9.562-10.048-18.842-14.185-28.603c0.408,9.575,0.177,19.166,0.232,28.757
	c-1.296,0-3.906-0.017-5.202-0.017C71.201,336.718,71.167,324.577,71.237,312.422z"/>
<path fill="#FFFFFF" d="M128.009,312.375c1.314,0,3.959,0.016,5.29,0.016c1.616,9.326-1.313,19.072,1.706,28.229
	c1.491,4.414,9.373,4.354,10.792-0.077c3.019-9.14-0.051-18.87,1.759-28.149c1.296,0,3.905-0.017,5.202-0.031
	c-0.267,8.533,0.569,17.099-0.443,25.604c-0.462,5.235-4.403,11.096-11.061,11.252c-5.805,0.776-11.095-3.141-12.107-8.005
	C126.855,331.743,128.488,321.965,128.009,312.375z"/>
<path fill="#FFFFFF" d="M159.466,348.872c0.338-12.154-0.586-24.356,0.444-36.468c1.315-0.014,3.959-0.045,5.273-0.059
	c0.069,10.381-0.124,20.778,0.104,31.18c4.439-0.094,8.896-0.049,13.333,0.076c-0.019,1.321-0.088,3.965-0.107,5.271
	C172.159,348.889,165.822,348.889,159.466,348.872z"/>
<path fill="#86858A" d="M47.644,318.08c4.545-2.502,9.888,0.822,11.078,4.896c2.148,6.313,2.397,14.316-2.948,19.492
	c-3.833,3.248-10.26,0.934-11.714-3.25C41.128,332.505,40.969,323.116,47.644,318.08z"/>
<path fill="#FFFFFF" d="M11.322,362.893c6.161-0.016,12.323-0.016,18.481,0c-0.017,1.338-0.036,4.025-0.052,5.363
	c-4.297-0.063-8.593,0-12.888,0.172c0.087,3.076,0.142,6.17,0.157,9.262c3.942,0,7.901,0,11.842,0
	c0.072,1.76,0.142,3.547,0.212,5.317c-4.029,0.048-8.059,0.063-12.07,0.093c-0.018,3.606,0,7.244,0,10.866
	c4.42,0,8.84,0,13.278,0.015c-0.018,1.338-0.035,4.026-0.053,5.381c-6.302,0-12.587,0-18.888-0.018
	C11.287,387.189,11.305,375.049,11.322,362.893z"/>
<path fill="#FFFFFF" d="M33.921,362.908c1.616-0.016,4.812-0.031,6.426-0.031c4.954,8.799,9.374,17.83,13.831,26.844
	c-0.249-8.953-0.338-17.904-0.231-26.857c1.295,0.029,3.923,0.061,5.236,0.078c-0.034,12.093-0.16,24.199,0.07,36.295
	c-2.057,0-4.099,0.016-6.141,0.029c-4.704-9.684-10.244-19.041-14.255-28.959c0.515,9.686,0.214,19.368,0.266,29.055
	c-1.313,0-3.906-0.032-5.201-0.032C33.921,387.189,33.904,375.049,33.921,362.908z"/>
<path fill="#FFFFFF" d="M72.019,364.493c5.236-2.705,11.52-1.958,17.095-0.685c-0.302,1.338-0.906,4.012-1.208,5.349
	c-4.722-1.337-10.581-2.284-14.503,1.135c-6.055,5.3-5.929,14.61-1.438,20.675c2.75,3.621,8.111,3.666,12.515,3.124
	c-0.018-3.155-0.018-6.313,0-9.452c-1.438-0.016-4.296-0.016-5.716-0.016c0.017-1.354,0.035-4.04,0.035-5.378
	c3.781,0,7.545,0,11.326,0.017c-0.515,6.17,1.208,12.807-0.797,18.714c-5.77,2.099-12.747,2.722-18.304-0.218
	c-5.858-2.938-7.882-9.248-8.237-14.768C62.432,376.105,64.793,368.178,72.019,364.493z"/>
<path fill="#FFFFFF" d="M94.298,362.877c1.419,0,4.26,0.031,5.681,0.031c0.053,12.078-0.196,24.14,0.16,36.219
	c-1.457,0.062-4.385,0.217-5.858,0.279C94.28,387.234,94.262,375.049,94.298,362.877z"/>
<path fill="#FFFFFF" d="M105.393,362.814c2.254,0.094,4.51,0.203,6.764,0.326c4.597,8.769,8.857,17.676,13.651,26.33
	c-0.709-8.843-0.498-17.719-0.514-26.595c1.33,0,3.993,0,5.307,0c0.018,12.172,0.018,24.327,0,36.483
	c-1.438,0.016-4.332,0.016-5.788,0.016c-5.04-9.592-10.331-19.121-14.556-29.037c0.656,9.684,0.301,19.382,0.319,29.067
	c-1.296-0.03-3.871-0.078-5.166-0.097C105.393,387.141,105.393,374.986,105.393,362.814z"/>
<path fill="#FFFFFF" d="M135.962,362.877c6.18,0,12.356,0,18.551,0c0,1.354,0.019,4.025,0.019,5.379
	c-4.297,0-8.575,0.016-12.87,0.031c0,3.125,0.018,6.264,0.018,9.402c3.993,0,7.988,0,11.982,0c0.019,1.354,0.019,4.043,0.035,5.381
	c-4.029,0-8.042,0-12.055,0.016c-0.017,3.62-0.017,7.242-0.017,10.88c4.474,0,8.965,0.015,13.438,0.046
	c-0.036,1.788-0.088,3.562-0.124,5.35c-6.284-0.032-12.568-0.018-18.854,0.062C135.803,387.25,135.998,375.063,135.962,362.877z"/>
<path fill="#FFFFFF" d="M158.686,362.893c6.142-0.016,12.302-0.016,18.462,0c-0.017,1.354-0.036,4.025-0.036,5.379
	c-4.226,0-8.432-0.016-12.64-0.078c-0.088,3.156-0.141,6.313-0.177,9.496c3.977-0.015,7.936,0,11.912,0
	c0.072,1.76,0.161,3.529,0.23,5.302c-4.029,0.05-8.059,0.079-12.089,0.108c-0.017,3.621-0.017,7.244,0,10.866
	c4.42,0,8.84,0,13.279,0c-0.017,1.353-0.035,4.041-0.052,5.378c-6.304,0.032-12.588,0.032-18.889,0
	C158.632,387.189,158.649,375.049,158.686,362.893z"/>
<path fill="#FFFFFF" d="M181.407,362.986c6.178-0.188,13.991-1.883,18.659,2.781c4.349,5.037,2.414,12.219-2.716,16.213
	c4.42,4.942,4.367,11.502,6.125,17.329c-1.456,0.033-4.35,0.065-5.805,0.08c-1.154-4.26-1.687-8.657-3.338-12.794
	c-1.171-2.748-4.793-2.098-7.384-2.563c-0.25,5.084,0.674,10.291-0.515,15.328c-1.296,0.016-3.871,0.046-5.167,0.075
	C181.337,387.282,181.089,375.143,181.407,362.986z"/>
<path fill="#FFFFFF" d="M206.971,362.877c1.404,0,4.244,0.016,5.665,0.016c0.071,12.063-0.053,24.109,0.071,36.17
	c-1.811,0.203-3.621,0.421-5.432,0.654C206.599,387.454,207.114,375.158,206.971,362.877z"/>
<path fill="#FFFFFF" d="M217.622,362.877c2.167,0,4.351,0,6.534,0.016c4.917,8.969,9.391,18.108,14.059,27.157
	c-0.904-9.032-0.604-18.11-0.604-27.173c1.296,0,3.907,0.016,5.202,0.016c0.071,12.094-0.124,24.203,0.125,36.295
	c-2.042,0.049-4.066,0.031-6.072,0.063c-4.545-9.217-9.711-18.203-13.723-27.623c-0.444,9.249-0.125,18.481-0.212,27.732
	c-1.332,0-3.977,0.016-5.31,0.016C217.605,387.204,217.605,375.049,217.622,362.877z"/>
<path fill="#FFFFFF" d="M249.95,369.594c4.438-6.965,15.072-8.598,22.954-5.439c-0.25,1.195-0.745,3.605-0.995,4.803
	c-4.669-0.917-10.261-2.083-14.272,0.961c-6.497,4.962-6.32,14.305-2.38,20.521c2.611,3.979,8.273,4.228,12.907,3.746
	c0.036-3.174,0.07-6.344,0.124-9.5c-1.491-0.045-4.455-0.123-5.93-0.17c0.055-1.756,0.107-3.514,0.179-5.252
	c3.764-0.018,7.562-0.018,11.344-0.033c0.088,6.25,0.104,12.498-0.036,18.763c-7.368,2.207-16.688,3.063-22.368-2.597
	C245.016,388.23,245.016,377.411,249.95,369.594z"/>
<path fill="#86858A" d="M187.054,367.386c3.816-0.204,9.569,0.249,9.657,4.708c1.438,5.178-4.633,8.086-9.764,7.307
	C186.947,375.391,186.965,371.382,187.054,367.386z"/>
</svg>
