<?xml version="1.0" encoding="UTF-8" ?>
<!DOCTYPE svg PUBLIC "-//W3C//DTD SVG 1.1//EN" "http://www.w3.org/Graphics/SVG/1.1/DTD/svg11.dtd">
<svg width="471pt" height="162pt" viewBox="0 0 471 162" version="1.1" xmlns="http://www.w3.org/2000/svg">
<path fill="#ffffff" d=" M 0.00 0.00 L 471.00 0.00 L 471.00 162.00 L 0.00 162.00 L 0.00 0.00 Z" />
<path fill="#7f7f82" d=" M 336.51 16.74 C 338.58 16.74 340.67 16.74 342.75 16.75 C 342.76 34.75 342.75 52.75 342.75 70.75 C 340.66 70.75 338.58 70.75 336.49 70.73 C 336.51 52.74 336.49 34.74 336.51 16.74 Z" />
<path fill="#cd5b00" d=" M 72.77 28.84 C 82.22 18.71 98.26 15.06 110.92 20.94 C 109.82 27.06 108.75 33.18 107.66 39.31 C 102.17 36.58 95.11 36.17 89.98 39.91 C 83.71 44.44 81.03 52.17 79.62 59.46 C 77.72 70.56 77.77 82.07 80.22 93.07 C 81.89 99.83 85.27 107.09 92.00 110.06 C 97.08 112.44 102.80 111.28 107.95 109.81 C 108.55 115.94 109.28 122.06 109.84 128.20 C 102.08 131.01 93.42 131.46 85.42 129.42 C 76.43 127.07 69.26 120.14 65.17 111.98 C 58.43 98.74 57.47 83.49 58.10 68.90 C 58.93 54.58 62.63 39.51 72.77 28.84 Z" />
<path fill="#cd5b00" d=" M 124.45 27.45 C 133.91 16.97 150.75 15.47 162.87 21.98 C 161.92 28.28 160.82 34.55 159.86 40.84 C 154.46 37.46 147.39 35.57 141.35 38.35 C 134.90 41.41 133.72 50.72 137.86 56.12 C 141.78 61.29 147.76 64.21 152.67 68.29 C 159.89 74.18 165.13 82.73 166.14 92.08 C 167.60 103.34 164.46 115.92 155.47 123.40 C 144.39 132.70 127.78 132.51 115.25 126.34 C 116.20 120.04 117.14 113.74 118.07 107.45 C 123.28 110.23 129.17 111.83 135.10 111.73 C 139.08 111.59 143.37 110.03 145.56 106.51 C 149.06 100.76 147.66 92.79 142.85 88.20 C 136.85 82.12 128.80 78.28 123.77 71.19 C 113.74 58.85 114.10 39.47 124.45 27.45 Z" />
<path fill="#7f7f82" d=" M 375.41 18.39 C 378.38 17.44 380.07 21.49 379.73 23.95 C 379.89 26.64 376.92 30.06 374.34 27.76 C 371.99 25.23 372.08 20.05 375.41 18.39 Z" />
<path fill="#cd5b00" d=" M 26.75 19.25 C 33.16 19.24 39.58 19.25 46.00 19.24 C 46.00 56.00 46.01 92.75 45.99 129.51 C 39.58 129.50 33.16 129.51 26.75 129.50 C 26.75 92.75 26.76 56.00 26.75 19.25 Z" />
<path fill="#7f7f82" d=" M 186.80 30.92 C 188.83 25.48 193.09 20.47 198.96 19.18 C 202.87 18.07 206.90 19.24 210.58 20.61 C 210.12 23.16 209.67 25.71 209.26 28.27 C 205.69 26.65 201.34 25.51 197.77 27.76 C 192.32 31.16 190.95 38.13 190.74 44.09 C 190.66 50.23 191.44 57.35 196.39 61.62 C 200.05 64.77 205.22 63.84 209.28 62.06 C 209.60 64.48 209.94 66.89 210.30 69.30 C 205.39 71.76 199.30 72.39 194.36 69.65 C 189.09 66.66 186.32 60.74 185.16 55.01 C 183.60 47.04 183.91 38.56 186.80 30.92 Z" />
<path fill="#7f7f82" d=" M 353.48 27.18 C 355.48 26.29 357.49 25.40 359.49 24.50 C 359.50 27.66 359.50 30.83 359.51 34.00 C 361.42 34.00 363.34 34.00 365.26 34.00 C 365.25 36.34 365.25 38.67 365.25 41.00 C 363.33 41.00 361.41 41.00 359.50 41.00 C 359.70 47.68 359.05 54.41 359.85 61.05 C 360.04 63.79 362.91 63.83 364.98 63.76 C 365.04 66.13 365.08 68.50 365.20 70.87 C 362.63 71.22 359.73 72.17 357.40 70.52 C 354.35 68.39 353.85 64.33 353.58 60.91 C 353.36 54.29 353.55 47.67 353.52 41.05 C 352.34 41.02 351.17 40.99 350.00 40.97 C 350.00 38.65 350.00 36.33 350.00 34.01 C 351.17 34.00 352.34 33.99 353.51 33.97 C 353.50 31.71 353.48 29.44 353.48 27.18 Z" />
<path fill="#7f7f82" d=" M 226.41 33.54 C 230.70 32.51 235.31 34.79 237.48 38.55 C 240.98 44.50 241.31 51.82 240.18 58.49 C 239.32 63.45 236.78 68.75 231.86 70.77 C 227.39 72.75 221.98 70.51 219.51 66.46 C 215.79 60.59 215.47 53.17 216.52 46.47 C 217.43 40.98 220.46 34.78 226.41 33.54 Z" />
<path fill="#7f7f82" d=" M 254.44 39.61 C 256.16 36.42 258.89 32.93 262.96 33.32 C 268.13 33.78 270.35 39.47 270.86 43.95 C 271.72 52.85 271.05 61.82 271.25 70.75 C 269.16 70.75 267.08 70.76 265.00 70.76 C 264.91 63.14 265.16 55.51 264.91 47.89 C 264.78 44.93 263.79 40.78 260.10 40.69 C 256.45 41.53 255.20 45.64 255.25 48.94 C 255.23 56.21 255.29 63.48 255.25 70.75 C 253.16 70.75 251.08 70.76 249.00 70.76 C 248.88 58.51 249.25 46.25 248.80 34.00 C 250.60 34.00 252.42 34.00 254.23 34.00 C 254.31 35.87 254.39 37.74 254.44 39.61 Z" />
<path fill="#7f7f82" d=" M 285.83 33.94 C 289.07 32.35 292.64 33.74 295.70 35.04 C 295.38 37.29 295.01 39.53 294.70 41.78 C 292.18 40.53 287.85 38.42 286.25 41.97 C 284.73 45.47 288.06 47.79 290.70 49.22 C 298.32 53.00 298.89 65.35 292.02 70.10 C 288.06 72.65 283.15 71.28 279.37 69.12 C 279.73 66.85 280.13 64.59 280.47 62.32 C 282.93 63.54 285.68 65.52 288.54 64.45 C 291.06 63.49 291.34 59.98 290.05 57.95 C 287.61 55.34 283.76 54.33 281.86 51.18 C 278.37 45.72 279.82 37.02 285.83 33.94 Z" />
<path fill="#7f7f82" d=" M 400.43 33.63 C 403.13 32.68 406.22 33.82 407.92 36.07 C 410.74 39.71 411.09 44.56 411.25 49.00 C 411.29 56.25 411.24 63.50 411.25 70.75 C 409.16 70.75 407.09 70.75 405.02 70.75 C 404.90 63.13 405.16 55.49 404.91 47.87 C 404.77 44.92 403.78 40.76 400.10 40.70 C 396.45 41.51 395.20 45.65 395.25 48.94 C 395.22 56.21 395.29 63.48 395.25 70.75 C 393.16 70.75 391.09 70.75 389.01 70.75 C 388.87 58.50 389.25 46.24 388.80 34.00 C 390.61 33.99 392.42 34.00 394.23 34.01 C 394.31 35.87 394.39 37.73 394.44 39.60 C 395.93 37.21 397.50 34.43 400.43 33.63 Z" />
<path fill="#7f7f82" d=" M 421.23 41.13 C 422.70 37.07 426.25 32.91 430.97 33.28 C 434.22 33.41 436.09 36.30 437.63 38.78 C 437.67 37.19 437.72 35.59 437.78 34.00 C 439.57 34.00 441.36 33.99 443.16 33.99 C 442.71 45.67 443.28 57.36 442.86 69.04 C 442.53 74.65 441.60 81.23 436.56 84.65 C 431.93 87.75 425.97 86.57 421.38 84.03 C 421.80 81.58 422.16 79.13 422.58 76.68 C 425.70 78.52 429.82 80.56 433.25 78.26 C 437.38 75.14 436.67 69.35 437.14 64.80 C 435.57 67.08 433.96 69.85 430.97 70.36 C 426.82 71.25 423.19 67.96 421.66 64.38 C 418.45 57.12 418.55 48.55 421.23 41.13 Z" />
<path fill="#7f7f82" d=" M 304.75 34.00 C 306.83 34.00 308.91 34.00 311.00 34.00 C 311.11 41.69 310.80 49.39 311.12 57.08 C 311.41 59.70 311.95 63.35 315.04 64.01 C 318.56 64.01 320.34 60.06 320.45 57.02 C 320.61 49.35 320.43 41.68 320.49 34.01 C 322.58 34.00 324.67 34.00 326.76 34.00 C 326.84 46.26 326.57 58.52 326.90 70.78 C 325.10 70.77 323.30 70.75 321.51 70.75 C 321.40 68.80 321.31 66.87 321.26 64.92 C 319.95 67.28 318.58 69.95 315.87 70.92 C 312.96 72.30 309.32 70.99 307.63 68.34 C 305.24 64.73 304.92 60.24 304.76 56.03 C 304.71 48.69 304.77 41.34 304.75 34.00 Z" />
<path fill="#7f7f82" d=" M 373.00 34.00 C 375.08 34.00 377.16 34.00 379.25 34.00 C 379.26 46.25 379.27 58.50 379.25 70.75 C 377.16 70.75 375.09 70.75 373.01 70.75 C 372.98 58.50 373.00 46.25 373.00 34.00 Z" />
<path fill="#ffffff" d=" M 227.22 40.18 C 229.57 39.37 231.95 41.17 232.78 43.31 C 234.91 48.10 234.95 53.66 233.72 58.70 C 233.00 61.18 231.71 64.20 228.87 64.73 C 226.24 65.06 224.39 62.60 223.55 60.42 C 221.94 56.08 221.92 51.26 222.81 46.76 C 223.42 44.20 224.48 41.11 227.22 40.18 Z" />
<path fill="#ffffff" d=" M 430.44 40.37 C 432.67 39.68 434.81 41.37 435.67 43.34 C 437.22 46.67 436.69 50.47 436.78 54.03 C 436.77 57.14 436.44 60.85 433.67 62.81 C 431.73 64.29 428.85 63.30 427.68 61.33 C 425.17 57.43 425.21 52.46 425.79 48.01 C 426.25 45.05 427.34 41.52 430.44 40.37 Z" />
<path fill="#7f7f82" d=" M 271.29 86.73 C 267.05 84.61 267.88 77.77 272.01 75.92 C 276.61 77.68 276.95 86.74 271.29 86.73 Z" />
<path fill="#7f7f82" d=" M 382.41 86.67 C 378.36 84.47 379.21 78.05 382.97 75.92 C 384.53 76.94 386.38 78.03 386.57 80.10 C 387.34 82.80 385.93 87.34 382.41 86.67 Z" />
<path fill="#7f7f82" d=" M 186.00 77.75 C 192.59 77.75 199.17 77.75 205.76 77.75 C 205.75 80.34 205.75 82.92 205.75 85.50 C 201.26 85.51 196.78 85.51 192.29 85.48 C 192.23 89.90 192.24 94.32 192.26 98.75 C 196.50 98.75 200.75 98.75 205.00 98.75 C 205.00 101.25 205.00 103.75 205.00 106.25 C 200.75 106.25 196.50 106.25 192.25 106.25 C 192.25 111.25 192.24 116.25 192.25 121.25 C 197.00 121.25 201.75 121.25 206.50 121.26 C 206.50 123.83 206.51 126.39 206.52 128.96 C 199.68 129.04 192.84 128.99 186.00 129.00 C 186.00 111.92 186.00 94.84 186.00 77.75 Z" />
<path fill="#7f7f82" d=" M 367.18 99.40 C 368.69 95.60 370.91 91.27 375.61 91.24 C 375.76 94.23 375.75 97.23 375.79 100.23 C 371.56 99.46 368.66 103.19 368.44 107.06 C 367.98 114.36 368.38 121.68 368.25 129.00 C 366.16 129.00 364.08 129.00 362.00 129.00 C 361.92 116.75 362.16 104.49 361.87 92.24 C 363.66 92.24 365.46 92.25 367.26 92.25 C 367.25 94.64 367.24 97.02 367.18 99.40 Z" />
<path fill="#7f7f82" d=" M 211.29 92.25 C 213.08 92.24 214.88 92.23 216.68 92.22 C 216.81 94.12 216.95 96.01 217.07 97.90 C 218.41 95.40 220.02 92.61 222.99 91.86 C 225.97 90.79 229.33 92.41 230.93 95.01 C 233.19 98.55 233.60 102.89 233.74 106.99 C 233.78 114.32 233.72 121.66 233.75 129.00 C 231.66 129.00 229.58 129.00 227.49 128.99 C 227.48 122.00 227.53 115.01 227.50 108.02 C 227.34 105.20 227.33 101.86 225.09 99.81 C 223.42 98.44 220.96 99.06 219.72 100.68 C 217.84 102.98 217.68 106.10 217.71 108.94 C 217.77 115.62 217.74 122.31 217.75 128.99 C 215.66 129.00 213.57 129.00 211.49 128.99 C 211.39 116.74 211.75 104.49 211.29 92.25 Z" />
<path fill="#7f7f82" d=" M 240.94 98.87 C 242.51 94.84 246.31 90.84 251.01 91.59 C 253.97 91.99 255.66 94.64 257.08 96.97 C 257.15 95.39 257.23 93.82 257.32 92.24 C 259.09 92.24 260.86 92.22 262.63 92.21 C 262.28 103.66 262.69 115.12 262.42 126.57 C 262.07 132.03 261.47 138.25 257.11 142.12 C 252.49 146.02 245.58 145.25 240.81 142.04 C 241.27 139.67 241.70 137.29 242.09 134.91 C 245.30 136.92 249.82 138.95 253.21 136.17 C 256.83 132.86 256.19 127.48 256.65 123.05 C 255.00 125.53 253.13 128.46 249.84 128.72 C 245.40 129.19 242.07 125.30 240.65 121.51 C 237.98 114.28 238.13 106.03 240.94 98.87 Z" />
<path fill="#7f7f82" d=" M 268.76 92.25 C 270.84 92.25 272.91 92.25 274.99 92.25 C 275.01 104.50 275.00 116.75 275.00 129.00 C 272.91 129.00 270.83 129.00 268.75 128.99 C 268.75 116.74 268.72 104.50 268.76 92.25 Z" />
<path fill="#7f7f82" d=" M 281.55 92.27 C 283.34 92.25 285.13 92.23 286.93 92.21 C 287.05 94.10 287.17 96.00 287.26 97.89 C 288.55 95.72 289.82 93.23 292.31 92.22 C 295.38 90.61 299.33 92.03 301.12 94.89 C 303.62 98.76 303.92 103.53 304.01 108.01 C 304.01 115.01 303.99 122.00 304.00 129.00 C 301.91 129.00 299.83 129.00 297.75 128.99 C 297.66 121.31 297.91 113.62 297.65 105.93 C 297.45 103.11 296.53 99.09 293.02 99.00 C 289.37 99.51 288.02 103.70 288.01 106.90 C 287.94 114.26 288.04 121.63 288.00 129.00 C 285.91 129.00 283.83 129.00 281.75 129.00 C 281.63 116.75 281.99 104.50 281.55 92.27 Z" />
<path fill="#7f7f82" d=" M 314.80 93.78 C 318.28 90.47 324.43 90.77 327.32 94.70 C 331.19 99.90 331.47 106.78 331.10 113.01 C 325.58 113.00 320.05 112.97 314.53 113.03 C 315.05 116.10 315.54 119.68 318.34 121.59 C 321.59 123.82 325.68 122.48 329.05 121.25 C 329.34 123.34 329.62 125.44 329.92 127.53 C 325.42 129.79 319.54 130.99 315.16 127.82 C 309.99 124.02 308.86 117.03 308.75 111.04 C 308.91 104.93 310.09 98.11 314.80 93.78 Z" />
<path fill="#7f7f82" d=" M 338.48 96.46 C 340.29 93.56 343.49 91.34 347.01 91.47 C 350.20 91.50 353.00 93.66 354.46 96.40 C 357.19 101.45 357.47 107.39 357.10 113.01 C 351.58 113.00 346.06 112.98 340.54 113.03 C 341.04 116.14 341.57 119.76 344.43 121.65 C 347.67 123.80 351.70 122.47 355.03 121.25 C 355.33 123.31 355.65 125.37 355.97 127.43 C 351.51 129.86 345.52 130.99 341.14 127.80 C 336.48 124.41 335.15 118.27 334.80 112.85 C 334.60 107.22 335.43 101.30 338.48 96.46 Z" />
<path fill="#7f7f82" d=" M 380.00 92.25 C 382.08 92.25 384.16 92.25 386.24 92.25 C 386.26 104.50 386.25 116.74 386.25 128.99 C 384.16 129.00 382.08 129.00 380.00 129.00 C 380.00 116.75 379.99 104.50 380.00 92.25 Z" />
<path fill="#7f7f82" d=" M 392.55 92.27 C 394.37 92.25 396.19 92.22 398.02 92.20 C 397.98 93.97 397.93 95.75 397.85 97.52 C 398.26 97.49 398.68 97.44 399.10 97.39 C 399.91 92.60 406.15 89.80 410.11 92.80 C 414.06 95.88 414.68 101.34 414.95 106.00 C 415.09 113.66 414.95 121.33 415.00 129.00 C 412.91 129.00 410.83 129.00 408.75 128.99 C 408.66 121.32 408.91 113.64 408.65 105.97 C 408.47 103.13 407.55 99.18 404.06 98.98 C 400.39 99.49 399.02 103.68 399.01 106.89 C 398.94 114.26 399.04 121.63 399.00 129.00 C 396.91 129.00 394.83 129.00 392.75 128.99 C 392.63 116.75 393.00 104.50 392.55 92.27 Z" />
<path fill="#7f7f82" d=" M 421.61 100.39 C 422.98 96.13 426.15 91.73 431.01 91.46 C 434.51 91.36 436.75 94.24 438.34 96.96 C 438.40 95.39 438.47 93.83 438.55 92.26 C 440.32 92.24 442.09 92.22 443.86 92.19 C 443.61 102.80 443.82 113.41 443.75 124.02 C 443.50 130.14 443.37 137.16 438.73 141.76 C 434.21 146.06 426.96 145.34 422.07 142.06 C 422.51 139.69 422.92 137.32 423.31 134.94 C 426.56 136.81 430.90 138.95 434.34 136.28 C 438.09 133.04 437.35 127.53 438.03 123.11 C 436.23 125.49 434.34 128.53 431.03 128.71 C 427.08 129.12 423.86 125.96 422.39 122.58 C 419.31 115.65 419.36 107.55 421.61 100.39 Z" />
<path fill="#ffffff" d=" M 317.84 98.84 C 319.45 97.43 322.28 97.66 323.57 99.42 C 325.15 101.40 325.20 104.08 325.74 106.46 C 321.98 106.52 318.23 106.52 314.47 106.45 C 315.25 103.83 315.57 100.69 317.84 98.84 Z" />
<path fill="#ffffff" d=" M 343.78 98.89 C 345.36 97.45 348.16 97.64 349.50 99.33 C 351.15 101.32 351.19 104.05 351.74 106.46 C 347.98 106.51 344.23 106.52 340.47 106.45 C 341.26 103.85 341.55 100.74 343.78 98.89 Z" />
<path fill="#ffffff" d=" M 248.41 99.49 C 250.71 97.19 254.25 99.08 255.24 101.72 C 256.82 105.59 256.21 109.93 256.22 114.02 C 256.21 117.27 254.72 121.37 251.04 121.85 C 246.81 121.45 245.43 116.66 245.09 113.10 C 244.85 108.49 244.83 102.92 248.41 99.49 Z" />
<path fill="#ffffff" d=" M 430.20 99.09 C 433.11 97.08 436.39 100.15 436.99 103.02 C 437.83 107.58 437.77 112.35 437.07 116.93 C 436.57 120.08 432.99 123.21 429.90 121.07 C 426.38 118.21 426.14 113.14 426.25 108.95 C 426.50 105.43 427.09 101.27 430.20 99.09 Z" />
</svg>
