<?xml version="1.0" encoding="utf-8"?>
<!-- Generator: Adobe Illustrator 16.2.0, SVG Export Plug-In . SVG Version: 6.00 Build 0)  -->
<!DOCTYPE svg PUBLIC "-//W3C//DTD SVG 1.1//EN" "http://www.w3.org/Graphics/SVG/1.1/DTD/svg11.dtd">
<svg version="1.1" id="Layer_1" xmlns="http://www.w3.org/2000/svg" xmlns:xlink="http://www.w3.org/1999/xlink" x="0px" y="0px"
	 width="483px" height="184px" viewBox="140.5 81.5 483 184" enable-background="new 140.5 81.5 483 184" xml:space="preserve">
<path fill="#FFFFFF" d="M251.966,233.397c-0.109-0.549-0.235-1.096-0.35-1.645c-0.161-0.037-0.319-0.082-0.479-0.123
	c0.164,1.396,0.297,2.795,0.408,4.191c0.315,0.105,0.629,0.209,0.943,0.316c-0.125-0.598-0.229-1.205-0.304-1.826
	C252.672,238.313,252.127,234.208,251.966,233.397z"/>
<path fill="#FFFFFF" d="M293.006,189.933c-0.023-1.314,0.059-2.67,0.234-4.035c-0.387,0.041-0.774,0.08-1.173,0.105
	c-2.769,0.168-5.559-0.074-8.334-0.467c4.341,4.838,8.601,10.279,9.9,16.082c1.229,5.488,0.228,10.949-2.321,15.645
	c0.295,1.68,0.567,3.365,0.797,5.059c0.291,2.137,0.482,4.227,0.599,6.293c1.769-2.154,2.976-3.816,5.158-6.891
	c2.886-4.064,5.636-8.199,8.273-12.43C298.302,206.378,293.155,198.374,293.006,189.933z"/>
<path fill="#CD5C03" d="M167.979,86.531c9.7-3.078,21.014,4.357,21.259,14.055c0.877,7.658-5.105,15.263-13.097,16.658
	c-8.304,1.923-17.532-3.31-19.589-11.192C153.863,98.01,159.346,88.598,167.979,86.531z"/>
<path fill="#CD5C03" d="M258.517,135.781c6.143-9.617,18.098-15.549,29.931-14.815c8.417,0.304,16.324,4.026,22.297,9.537
	c-7.114,7.13-14.418,14.1-21.637,21.132c-0.887-0.564-1.764-1.127-2.651-1.682c-0.774,0.85-2.954,2.084-1.651,3.363
	c2.076,2.488,4.671,4.562,6.652,7.138c6.869,8.105,11.276,18.242,11.465,28.701c0.473,16.129-5.416,32.332-16.258,44.768
	c-8.615,10.135-20.457,17.688-33.469,21.783c-17.07,5.262-36.215,4.277-52.53-2.861c-15.277-6.648-27.968-18.52-35.13-32.934
	c-7.313-14.455-8.908-31.391-4.529-46.869c4.199-15.279,14.276-28.995,27.845-38.138c19.617-13.598,46.623-16.443,69.042-7.739
	c-4.246,8.938-8.728,17.768-12.946,26.714c-9.162-2.952-19.353-3.185-28.44,0.116c-11.209,3.945-20.429,12.722-24.458,23.394
	c-3.406,8.867-3.255,18.922,0.5,27.672c4.501,10.727,14.249,19.395,25.921,22.777c12.502,3.918,26.883,1.424,37.262-6.209
	c10.483-7.461,16.787-19.932,16.192-32.359c-0.462-6.342-5.209-11.244-9.681-15.539
	C252.072,163.854,250.751,147.313,258.517,135.781z"/>
<path fill="#CD5C03" d="M155.685,122.084c10.389-0.027,20.769,0,31.157-0.009c0.009,3.766,0.028,7.533-0.028,11.308
	c-13.947,9.25-24.27,23.26-28.724,38.827c-1.047,3.373-1.5,6.871-2.34,10.279C155.6,162.36,155.741,142.222,155.685,122.084z"/>
<path fill="#86858A" d="M490.67,118.366c2.429,0.011,4.857,0.023,7.311,0.033c-0.023,19.917,0.011,39.834-0.023,59.761
	c-2.371,0.011-4.743,0.067-7.091,0.178C490.392,158.353,490.773,138.349,490.67,118.366z"/>
<path fill="#86858A" d="M535.703,120.18c3.898-1.028,5.773,4.315,4.87,7.259c-0.196,2.788-3.748,5.421-6.234,3.109
	C531.77,127.671,531.827,121.973,535.703,120.18z"/>
<path fill="#86858A" d="M324.067,124.728c5.715-4.879,14.332-5.201,20.996-1.969c-0.566,2.832-1.088,5.665-1.551,8.52
	c-4.257-2.168-9.833-3.154-13.985-0.232c-6.038,4.215-7.346,11.972-7.415,18.656c0.023,6.672,1.169,14.517,7.172,18.787
	c4.245,2.954,9.821,1.926,14.252-0.077c0.382,2.701,0.764,5.389,1.18,8.088c-6.789,3.595-16.148,3.452-21.862-1.958
	c-6.826-6.439-8.329-16.166-8.341-24.929C314.802,140.717,316.849,130.936,324.067,124.728z"/>
<path fill="#86858A" d="M510.312,129.896c2.291-1.062,4.651-1.97,7.091-2.689c-0.093,3.419-0.093,6.849-0.058,10.269
	c2.198,0,4.407,0.011,6.628,0.011c-0.011,2.578-0.022,5.156-0.011,7.745c-2.222,0-4.431,0-6.628,0.011
	c0.207,7.358-0.475,14.771,0.369,22.097c0.221,2.987,3.517,3.375,5.969,2.909c0,2.689,0.082,5.367,0.197,8.044
	c-2.973,0.465-6.328,1.438-9.023-0.376c-3.527-2.356-4.117-6.838-4.419-10.623c-0.243-7.313-0.069-14.649-0.058-21.963
	c-1.364-0.044-2.729-0.088-4.071-0.122c0-2.556,0-5.112,0-7.668c1.364-0.088,2.741-0.165,4.129-0.243
	C510.335,134.831,510.312,132.363,510.312,129.896z"/>
<path fill="#86858A" d="M363.271,136.966c5.334-1.295,11.014,1.726,13.396,6.34c3.783,6.993,4.037,15.358,2.256,22.937
	c-1.168,4.958-4.211,10.014-9.347,11.994c-4.894,1.992-10.84-0.088-13.778-4.193c-4.499-6.086-5.031-14.042-4.175-21.234
	C352.455,146.249,355.798,138.526,363.271,136.966z"/>
<path fill="#86858A" d="M395.847,143.206c1.944-2.667,4.037-5.831,7.704-6.362c3.574-0.831,7.091,1.339,8.815,4.249
	c2.51,4.25,2.788,9.294,2.88,14.063c-0.023,7.679,0,15.357-0.034,23.037c-2.418,0-4.824,0.011-7.219,0.022
	c-0.104-8.442,0.139-16.886-0.115-25.328c-0.208-3.242-1.285-7.922-5.565-7.944c-4.222,0.896-5.656,5.488-5.609,9.117
	c0,8.044,0.058,16.087-0.012,24.132c-2.406,0-4.813,0.011-7.207,0.034c-0.186-13.588,0.313-27.176-0.278-40.752
	c2.095,0,4.188,0,6.305,0C395.615,139.389,395.731,141.292,395.847,143.206z"/>
<path fill="#86858A" d="M432.182,137.353c3.69-1.704,7.727-0.199,11.232,1.174c-0.289,2.556-0.647,5.1-1.04,7.646
	c-2.431-1.018-4.952-2.611-7.705-1.904c-3.193,1.383-3.251,6.175-0.335,7.878c3.308,2.269,7.507,3.961,9.115,7.845
	c2.486,5.765,1.619,13.698-4.13,17.427c-4.581,2.811-10.388,1.482-14.715-1.118c0.417-2.511,0.844-5.022,1.238-7.546
	c2.637,1.317,5.448,3.166,8.583,2.656c3.979-0.752,4.488-6.484,1.354-8.487c-2.846-2.134-6.559-3.407-8.41-6.56
	C423.401,150.277,425.172,140.672,432.182,137.353z"/>
<path fill="#86858A" d="M557.809,143.295c2.152-3.663,5.947-7.579,10.828-6.439c5.784,1.372,7.751,7.723,8.248,12.746
	c0.648,9.505,0.163,19.064,0.267,28.603c-2.417-0.011-4.813-0.011-7.207,0c-0.104-8.442,0.15-16.896-0.115-25.327
	c-0.221-3.22-1.273-7.878-5.53-7.933c-4.245,0.852-5.68,5.477-5.634,9.106c-0.022,8.043,0.047,16.098-0.022,24.143
	c-2.406,0-4.813,0.011-7.207,0.022c-0.186-13.577,0.301-27.176-0.266-40.741c2.082,0.011,4.176,0.011,6.281,0.011
	C557.566,139.422,557.705,141.358,557.809,143.295z"/>
<path fill="#86858A" d="M587.967,147.278c1.481-4.913,5.066-10.19,10.875-10.678c3.967-0.32,6.627,2.799,8.849,5.455
	c0.035-1.527,0.081-3.054,0.15-4.57c2.083,0,4.165-0.011,6.282-0.011c-0.59,12.923,0.058,25.892-0.348,38.826
	c-0.416,6.174-1.469,13.432-7.253,17.207c-5.345,3.43-12.354,2.29-17.618-0.676c0.37-2.667,0.821-5.311,1.308-7.944
	c3.713,1.727,8.352,4.05,12.308,1.582c4.801-3.396,4.096-9.803,4.546-14.826c-1.63,2.213-3.122,4.925-6.015,5.797
	c-4.396,1.639-9.116-1.249-11.117-4.967C585.618,164.827,585.561,155.5,587.967,147.278z"/>
<path fill="#86858A" d="M453.941,137.486c2.405,0,4.835,0,7.253,0c0.093,8.509-0.197,17.041,0.139,25.538
	c0.347,2.899,1.007,6.881,4.534,7.656c3.991-0.022,6.108-4.382,6.224-7.712c0.139-8.465,0.07-16.94-0.011-25.393
	c2.464-0.078,4.916-0.1,7.392-0.1c0.092,13.576-0.243,27.153,0.185,40.718c-2.117,0-4.233,0-6.327,0.022
	c-0.139-2.091-0.231-4.183-0.267-6.263c-1.504,2.522-3.157,5.299-6.153,6.385c-3.401,1.549-7.646,0.132-9.636-2.833
	c-2.777-4.005-3.159-8.995-3.31-13.665C453.918,153.718,453.964,145.607,453.941,137.486z"/>
<path fill="#86858A" d="M532.915,137.486c2.406,0,4.813,0,7.241,0c0.012,13.565,0.024,27.13-0.011,40.708
	c-2.418,0-4.824,0-7.219,0.011C532.893,164.628,532.927,151.051,532.915,137.486z"/>
<path fill="#FFFFFF" d="M363.306,144.755c3.217-1.958,6.93,0.886,7.798,3.928c2.243,6.174,2.289,13.367-0.648,19.341
	c-1.169,2.656-4.812,4.691-7.474,2.612c-3.943-3.197-4.36-8.641-4.464-13.245C358.795,152.988,359.199,147.543,363.306,144.755z"/>
<path fill="#FFFFFF" d="M599.316,144.579c2.231-0.764,4.557,0.718,5.656,2.544c2.174,3.419,1.596,7.591,1.711,11.408
	c0,3.52-0.045,7.568-2.846,10.235c-1.919,1.981-5.46,1.66-7.113-0.431c-3.274-3.917-3.309-9.361-2.881-14.119
	C594.271,150.576,595.371,146.105,599.316,144.579z"/>
<path fill="#CD5C03" d="M155.769,198.718c2.303,14.824,8.889,29.264,20.042,40.035c3.378,3.391,7.086,6.469,11.049,9.234
	c-0.01,3.059-0.019,6.119-0.019,9.178c-10.389,0-20.768,0-31.157,0C155.741,237.681,155.581,218.194,155.769,198.718z"/>
<path fill="#86858A" d="M414.032,185.142c7.113-3.53,8.652,11.275,1.295,10.732C411.116,194.093,411.105,187.997,414.032,185.142z"
	/>
<path fill="#86858A" d="M544.669,195.941c-5.565-1.273-5.067-9.947-0.15-11.928C550.07,185.396,550.557,194.901,544.669,195.941z"/>
<path fill="#86858A" d="M316.595,185.895c7.635-0.011,15.27-0.045,22.904,0.021c0,2.854-0.012,5.72-0.035,8.587
	c-5.159-0.011-10.318,0.055-15.465-0.089c-0.302,4.891-0.128,9.792-0.151,14.694c4.904,0.012,9.81,0.012,14.727,0.012
	c-0.012,2.767-0.012,5.543,0,8.319c-4.905,0-9.822,0-14.727,0.011c-0.012,5.5-0.023,10.999-0.012,16.509
	c5.506,0.057,11.001-0.021,16.508,0.067c-0.023,2.82,0,5.653,0.08,8.475c-7.945,0.233-15.894,0.033-23.829,0.101
	C316.595,223.702,316.595,204.793,316.595,185.895z"/>
<path fill="#86858A" d="M526.356,209.495c1.665-4.061,4.257-8.896,9.625-8.575c0.173,3.32,0.219,6.65,0.185,9.98
	c-4.882-1.206-8.225,3.287-8.514,7.457c-0.521,8.066-0.07,16.168-0.221,24.244c-2.429,0-4.846,0-7.241,0.011
	c-0.104-13.588,0.221-27.176-0.185-40.751c2.07,0.01,4.165,0.021,6.258,0.043C526.241,204.428,526.275,206.962,526.356,209.495z"/>
<path fill="#86858A" d="M345.793,201.894c2.093,0,4.21-0.011,6.327-0.011c0.15,2.025,0.289,4.049,0.428,6.097
	c1.851-3.751,5.495-7.567,10.283-6.761c6.433,1.129,8.318,8.243,8.826,13.565c0.51,9.262,0.082,18.546,0.221,27.817
	c-2.452,0-4.905-0.011-7.345-0.044c0-8.421,0.173-16.853-0.06-25.262c-0.207-3.075-1.11-7.424-5.009-7.855
	c-3.943,0.145-5.899,4.403-6.038,7.69c-0.173,8.486,0,16.974-0.058,25.471c-2.441,0-4.881,0-7.312,0
	C345.896,229.035,346.404,215.448,345.793,201.894z"/>
<path fill="#86858A" d="M380.068,209.373c1.793-4.502,6.177-8.974,11.649-8.197c3.411,0.396,5.494,3.241,7.021,5.897
	c0.093-1.728,0.209-3.453,0.336-5.18c2.06-0.011,4.118-0.022,6.2-0.043c-0.335,11.362-0.081,22.749-0.139,34.113
	c-0.254,6.858-0.196,14.57-5.113,20.092c-5.077,5.388-14.24,5.001-20.047,0.898c0.543-2.636,1.053-5.292,1.504-7.936
	c3.62,2.414,8.919,4.504,12.841,1.505c4.175-3.652,3.4-9.571,3.956-14.44c-1.816,2.801-4.037,5.898-7.797,6.231
	c-5.124,0.563-9.035-3.752-10.689-7.956C376.726,226.391,376.863,217.285,380.068,209.373z"/>
<path fill="#86858A" d="M412.366,201.883c2.382,0,4.766,0,7.172,0c0.034,13.576-0.011,27.142,0.012,40.719c-2.418,0-4.835,0-7.241,0
	C412.331,229.024,412.216,215.448,412.366,201.883z"/>
<path fill="#86858A" d="M427.126,201.883c2.06-0.012,4.142-0.012,6.224-0.021c0.139,1.992,0.267,3.982,0.382,5.975
	c1.701-2.512,3.471-5.411,6.698-6.284c3.424-1.263,7.426,0.388,9.347,3.263c2.869,4.271,3.285,9.551,3.343,14.496
	c-0.034,7.767-0.022,15.523-0.022,23.291c-2.418,0-4.835,0-7.23,0c-0.081-8.165,0.082-16.332-0.058-24.498
	c-0.254-3.152-0.694-7.501-4.441-8.575c-4.234-0.541-6.468,4.072-6.698,7.458c-0.209,8.532-0.023,17.073-0.081,25.615
	c-2.418,0-4.835,0-7.241,0C427.208,229.024,427.624,215.448,427.126,201.883z"/>
<path fill="#86858A" d="M462.895,206.542c2.267-3.509,6.571-6.065,10.989-5.389c3.609,0.431,6.501,3.097,7.982,6.162
	c2.695,5.445,3.077,11.663,2.557,17.593c-6.352-0.021-12.69-0.021-19.019,0.012c0.359,3.662,1.308,8.021,5.056,9.881
	c3.69,1.893,7.971,0.499,11.579-0.863c0.335,2.258,0.717,4.515,1.156,6.771c-5.02,3.044-12.1,4.051-17.178,0.631
	c-4.708-3.208-6.548-8.896-7.16-14.152C458.082,220.174,458.915,212.639,462.895,206.542z"/>
<path fill="#86858A" d="M492.531,207.216c2.21-3.827,6.663-6.771,11.396-6.073c3.713,0.42,6.616,3.207,8.108,6.35
	c2.614,5.411,2.996,11.552,2.464,17.428c-6.34-0.033-12.667-0.033-18.994-0.012c0.301,3.674,1.283,7.991,4.998,9.87
	c3.7,1.936,8.027,0.521,11.659-0.862c0.324,2.378,0.671,4.758,0.96,7.146c-4.557,2.049-10.017,3.465-14.864,1.439
	c-5.391-2.212-8.051-7.812-8.989-13.045C487.985,221.999,488.599,213.9,492.531,207.216z"/>
<path fill="#86858A" d="M541.013,201.894c2.406,0,4.802,0,7.23,0c0.035,13.565,0.011,27.131,0.011,40.708
	c-2.429-0.011-4.835,0-7.241,0C541.013,229.035,541.013,215.459,541.013,201.894z"/>
<path fill="#86858A" d="M555.322,202.105c2.129-0.178,4.281-0.268,6.432-0.277c0.128,2.002,0.256,4.005,0.382,6.008
	c1.701-2.523,3.494-5.434,6.756-6.295c3.447-1.241,7.485,0.441,9.359,3.385c2.614,3.939,3.135,8.763,3.261,13.333
	c0,8.11-0.033,16.232-0.011,24.343c-2.418,0-4.835,0-7.23,0c-0.081-8.144,0.082-16.276-0.058-24.421
	c-0.242-3.187-0.671-7.612-4.488-8.664c-4.233-0.497-6.421,4.149-6.664,7.536c-0.196,8.508-0.011,17.028-0.068,25.549
	c-2.418,0-4.835,0-7.241,0C555.484,229.102,556.294,215.57,555.322,202.105z"/>
<path fill="#86858A" d="M589.691,209.495c1.746-4.46,5.957-8.907,11.359-8.364c3.551,0.287,5.726,3.176,7.392,5.854
	c0.104-1.738,0.255-3.476,0.451-5.201c2.002,0.045,4.015,0.067,6.039,0.088c-0.336,12.46,0.058,24.919-0.196,37.379
	c-0.417,6.073-0.892,12.956-5.727,17.469c-5.252,4.76-13.813,4.129-19.389,0.223c0.566-2.601,1.041-5.211,1.445-7.834
	c3.715,2.113,8.7,4.438,12.703,1.582c4.373-3.495,3.551-9.525,4.326-14.373c-2.117,2.557-4.304,5.786-8.075,6.009
	c-4.938,0.433-8.756-3.565-10.387-7.625C586.336,226.713,586.51,217.473,589.691,209.495z"/>
<path fill="#FFFFFF" d="M469.061,209.297c1.816-1.616,5.102-1.395,6.604,0.53c1.863,2.19,2.024,5.146,2.406,7.835
	c-4.257,0.021-8.49,0.033-12.735-0.034C466.053,214.718,466.527,211.354,469.061,209.297z"/>
<path fill="#FFFFFF" d="M499.207,209.241c1.839-1.55,5.055-1.307,6.559,0.608c1.851,2.191,1.967,5.134,2.406,7.802
	c-4.245,0.032-8.503,0.044-12.737-0.014C496.141,214.696,496.592,211.276,499.207,209.241z"/>
<path fill="#FFFFFF" d="M388.825,209.95c2.104-1.971,5.448-1.131,6.964,1.073c2.927,4.026,1.851,9.228,2.035,13.829
	c0.186,3.952-1.307,9.218-6.096,9.848c-5.229-0.773-6.594-6.55-6.848-10.799C384.765,219.133,384.938,213.435,388.825,209.95z"/>
<path fill="#FFFFFF" d="M599.084,209.563c3.875-2.479,7.763,1.912,8.109,5.431c0.475,4.769,0.671,9.682-0.231,14.418
	c-0.659,3.397-4.767,6.749-8.248,4.369c-4.014-3.173-4.303-8.763-4.177-13.364C594.861,216.556,595.475,211.94,599.084,209.563z"/>
</svg>
