<?xml version="1.0" encoding="UTF-8" ?>
<!DOCTYPE svg PUBLIC "-//W3C//DTD SVG 1.1//EN" "http://www.w3.org/Graphics/SVG/1.1/DTD/svg11.dtd">
<svg width="1242pt" height="410pt" viewBox="0 0 1242 410" version="1.1" xmlns="http://www.w3.org/2000/svg">
<path fill="#ffffff" d=" M 0.00 0.00 L 1242.00 0.00 L 1242.00 410.00 L 0.00 410.00 L 0.00 0.00 Z" />
<path fill="#cd5c03" d=" M 911.46 2.04 C 1021.06 1.94 1130.66 2.03 1240.26 2.00 C 1240.29 32.48 1240.19 62.95 1240.30 93.43 C 1130.71 93.62 1021.10 93.46 911.50 93.51 C 911.45 63.02 911.54 32.53 911.46 2.04 Z" />
<path fill="#cd5c03" d=" M 119.26 91.27 C 129.54 87.83 141.53 96.14 141.79 106.98 C 142.72 115.54 136.38 124.04 127.91 125.60 C 119.11 127.75 109.33 121.90 107.15 113.09 C 104.30 104.10 110.11 93.58 119.26 91.27 Z" />
<path fill="#cd5c03" d=" M 215.21 146.32 C 221.72 135.57 234.39 128.94 246.93 129.76 C 255.85 130.10 264.23 134.26 270.56 140.42 C 263.02 148.39 255.28 156.18 247.63 164.04 C 246.69 163.41 245.76 162.78 244.82 162.16 C 244.00 163.11 241.69 164.49 243.07 165.92 C 245.27 168.70 248.02 171.02 250.12 173.90 C 257.40 182.96 262.07 194.29 262.27 205.98 C 262.77 224.01 256.53 242.12 245.04 256.02 C 235.91 267.35 223.36 275.79 209.57 280.37 C 191.48 286.25 171.19 285.15 153.90 277.17 C 137.71 269.74 124.26 256.47 116.67 240.36 C 108.92 224.20 107.23 205.27 111.87 187.97 C 116.32 170.89 127.00 155.56 141.38 145.34 C 162.17 130.14 190.79 126.96 214.55 136.69 C 210.05 146.68 205.30 156.55 200.83 166.55 C 191.12 163.25 180.32 162.99 170.69 166.68 C 158.81 171.09 149.04 180.90 144.77 192.83 C 141.16 202.74 141.32 213.98 145.30 223.76 C 150.07 235.75 160.40 245.44 172.77 249.22 C 186.02 253.60 201.26 250.81 212.26 242.28 C 223.37 233.94 230.05 220.00 229.42 206.11 C 228.93 199.02 223.90 193.54 219.16 188.74 C 208.38 177.70 206.98 159.21 215.21 146.32 Z" />
<path fill="#cd5c03" d=" M 106.23 131.01 C 117.24 130.98 128.24 131.01 139.25 131.00 C 139.26 135.21 139.28 139.42 139.22 143.64 C 124.44 153.98 113.50 169.64 108.78 187.04 C 107.67 190.81 107.19 194.72 106.30 198.53 C 106.14 176.03 106.29 153.52 106.23 131.01 Z" />
<path fill="#86858a" d=" M 796.48 175.72 C 798.58 175.73 800.68 175.74 802.80 175.75 C 802.78 193.75 802.81 211.75 802.78 229.76 C 800.73 229.77 798.68 229.82 796.65 229.92 C 796.24 211.86 796.57 193.78 796.48 175.72 Z" />
<path fill="#cd5c03" d=" M 533.81 186.80 C 543.32 177.43 558.67 174.32 570.89 179.88 C 569.89 186.03 568.71 192.15 567.70 198.31 C 562.21 195.60 555.16 195.17 550.03 198.89 C 543.56 203.53 540.89 211.55 539.52 219.05 C 537.70 230.25 537.79 241.87 540.44 252.93 C 542.18 259.38 545.56 266.24 552.02 269.06 C 557.09 271.41 562.81 270.31 567.95 268.78 C 568.56 274.92 569.30 281.04 569.83 287.18 C 560.68 290.46 550.13 290.74 541.11 286.89 C 532.10 282.91 525.98 274.38 522.68 265.35 C 517.85 252.50 517.42 238.52 518.30 224.97 C 519.49 211.16 523.61 196.71 533.81 186.80 Z" />
<path fill="#cd5c03" d=" M 586.48 184.42 C 596.26 175.79 611.57 174.89 622.86 181.00 C 621.93 187.30 620.81 193.57 619.84 199.87 C 614.47 196.42 607.34 194.58 601.31 197.37 C 594.68 200.58 593.70 210.28 598.24 215.63 C 603.47 221.91 611.47 225.03 616.82 231.21 C 629.35 244.25 629.97 267.27 617.50 280.53 C 606.66 291.62 588.50 291.99 575.24 285.30 C 576.21 279.01 577.12 272.71 578.09 266.41 C 582.95 269.12 588.48 270.57 594.03 270.75 C 598.11 270.80 602.59 269.53 605.14 266.13 C 608.87 260.79 608.02 252.99 603.75 248.20 C 599.10 242.76 592.47 239.60 587.54 234.46 C 581.01 228.07 576.51 219.26 576.46 210.00 C 576.31 200.65 579.38 190.80 586.48 184.42 Z" />
<path fill="#86858a" d=" M 835.41 177.36 C 838.78 176.43 840.40 181.26 839.62 183.92 C 839.45 186.44 836.38 188.82 834.23 186.73 C 832.01 184.13 832.06 178.98 835.41 177.36 Z" />
<path fill="#cd5c03" d=" M 486.82 178.18 C 493.21 178.30 499.60 178.21 506.00 178.23 C 505.97 215.00 506.06 251.77 505.95 288.54 C 499.53 288.43 493.11 288.61 486.69 288.44 C 486.87 251.68 486.61 214.93 486.82 178.18 Z" />
<path fill="#86858a" d=" M 652.46 181.47 C 657.40 177.06 664.85 176.77 670.61 179.69 C 670.12 182.25 669.67 184.81 669.27 187.39 C 665.59 185.43 660.77 184.54 657.18 187.18 C 651.96 190.99 650.83 198.00 650.77 204.04 C 650.79 210.07 651.78 217.16 656.97 221.02 C 660.64 223.69 665.46 222.76 669.29 220.95 C 669.62 223.39 669.95 225.82 670.31 228.26 C 664.44 231.51 656.35 231.38 651.41 226.49 C 645.51 220.67 644.21 211.88 644.20 203.96 C 644.45 195.92 646.22 187.08 652.46 181.47 Z" />
<path fill="#86858a" d=" M 813.46 186.14 C 815.44 185.18 817.48 184.36 819.59 183.71 C 819.51 186.80 819.51 189.90 819.54 192.99 C 821.44 192.99 823.35 193.00 825.27 193.00 C 825.26 195.33 825.25 197.66 825.26 200.00 C 823.34 200.00 821.43 200.00 819.53 200.01 C 819.71 206.66 819.12 213.36 819.85 219.98 C 820.04 222.68 822.89 223.03 825.01 222.61 C 825.01 225.04 825.08 227.46 825.18 229.88 C 822.61 230.30 819.71 231.18 817.38 229.54 C 814.33 227.41 813.82 223.36 813.56 219.94 C 813.35 213.33 813.50 206.70 813.51 200.09 C 812.33 200.05 811.15 200.01 809.99 199.98 C 809.99 197.67 809.99 195.36 809.99 193.05 C 811.17 192.97 812.36 192.90 813.56 192.83 C 813.48 190.60 813.46 188.37 813.46 186.14 Z" />
<path fill="#86858a" d=" M 686.35 192.53 C 690.96 191.36 695.87 194.09 697.93 198.26 C 701.20 204.58 701.42 212.14 699.88 218.99 C 698.87 223.47 696.24 228.04 691.80 229.83 C 687.57 231.63 682.43 229.75 679.89 226.04 C 676.00 220.54 675.54 213.35 676.28 206.85 C 677.00 200.92 679.89 193.94 686.35 192.53 Z" />
<path fill="#86858a" d=" M 714.51 198.17 C 716.19 195.76 718.00 192.90 721.17 192.42 C 724.26 191.67 727.30 193.63 728.79 196.26 C 730.96 200.10 731.20 204.66 731.28 208.97 C 731.26 215.91 731.28 222.85 731.25 229.79 C 729.16 229.79 727.08 229.80 725.01 229.81 C 724.92 222.18 725.13 214.55 724.91 206.92 C 724.73 203.99 723.80 199.76 720.10 199.74 C 716.45 200.55 715.21 204.70 715.25 207.98 C 715.25 215.25 715.30 222.52 715.24 229.79 C 713.16 229.79 711.08 229.80 709.01 229.82 C 708.85 217.54 709.28 205.26 708.77 192.99 C 710.58 192.99 712.39 192.99 714.22 192.99 C 714.31 194.72 714.41 196.44 714.51 198.17 Z" />
<path fill="#86858a" d=" M 745.92 192.88 C 749.11 191.34 752.60 192.70 755.63 193.94 C 755.38 196.25 755.07 198.55 754.73 200.85 C 752.63 199.93 750.45 198.49 748.07 199.13 C 745.31 200.38 745.26 204.71 747.78 206.25 C 750.64 208.30 754.27 209.83 755.66 213.34 C 757.81 218.55 757.06 225.72 752.09 229.09 C 748.13 231.63 743.11 230.43 739.37 228.08 C 739.73 225.81 740.10 223.54 740.44 221.26 C 742.72 222.45 745.15 224.12 747.86 223.66 C 751.30 222.98 751.74 217.80 749.03 215.99 C 746.57 214.06 743.36 212.91 741.76 210.06 C 738.33 204.56 739.86 195.88 745.92 192.88 Z" />
<path fill="#86858a" d=" M 854.52 198.25 C 856.38 194.94 859.66 191.40 863.88 192.43 C 868.88 193.67 870.58 199.41 871.01 203.95 C 871.57 212.54 871.15 221.18 871.24 229.80 C 869.15 229.79 867.08 229.79 865.01 229.80 C 864.92 222.17 865.14 214.53 864.91 206.91 C 864.72 204.00 863.81 199.79 860.13 199.74 C 856.46 200.51 855.22 204.69 855.26 207.97 C 855.24 215.24 855.30 222.52 855.24 229.79 C 853.16 229.79 851.08 229.80 849.01 229.81 C 848.85 217.54 849.27 205.25 848.78 192.99 C 850.58 193.00 852.39 193.00 854.21 193.00 C 854.31 194.75 854.43 196.50 854.52 198.25 Z" />
<path fill="#86858a" d=" M 880.59 201.85 C 881.87 197.41 884.97 192.64 889.99 192.20 C 893.42 191.91 895.72 194.73 897.64 197.13 C 897.67 195.75 897.71 194.37 897.77 193.00 C 899.57 193.00 901.37 192.99 903.20 192.99 C 902.69 204.67 903.25 216.39 902.90 228.08 C 902.54 233.66 901.63 240.22 896.63 243.63 C 892.01 246.73 885.95 245.70 881.40 243.02 C 881.72 240.61 882.11 238.22 882.53 235.84 C 885.74 237.40 889.75 239.50 893.17 237.27 C 897.32 234.20 896.71 228.41 897.10 223.87 C 895.69 225.87 894.40 228.32 891.90 229.11 C 888.10 230.59 884.02 227.98 882.29 224.62 C 878.56 217.71 878.51 209.28 880.59 201.85 Z" />
<path fill="#86858a" d=" M 764.73 193.00 C 766.81 193.00 768.91 193.00 771.00 193.00 C 771.08 200.69 770.83 208.40 771.12 216.08 C 771.42 218.70 771.99 222.30 775.04 223.00 C 778.49 222.98 780.32 219.04 780.42 216.03 C 780.54 208.38 780.48 200.72 780.41 193.08 C 782.54 193.01 784.66 192.99 786.80 192.99 C 786.88 205.26 786.59 217.53 786.96 229.79 C 785.13 229.79 783.30 229.79 781.49 229.81 C 781.37 227.92 781.29 226.03 781.26 224.15 C 779.96 226.43 778.53 228.94 775.94 229.92 C 773.00 231.32 769.33 230.04 767.61 227.36 C 765.21 223.74 764.88 219.23 764.75 215.01 C 764.71 207.67 764.75 200.34 764.73 193.00 Z" />
<path fill="#86858a" d=" M 833.00 193.00 C 835.08 193.00 837.16 193.00 839.26 193.00 C 839.27 205.26 839.28 217.52 839.25 229.79 C 837.16 229.79 835.08 229.79 833.01 229.80 C 832.98 217.53 833.01 205.26 833.00 193.00 Z" />
<path fill="#ffffff" d=" M 686.38 199.57 C 689.16 197.80 692.37 200.37 693.12 203.12 C 695.06 208.70 695.10 215.20 692.56 220.60 C 691.55 223.00 688.40 224.84 686.10 222.96 C 682.69 220.07 682.33 215.15 682.24 210.99 C 682.48 207.01 682.83 202.09 686.38 199.57 Z" />
<path fill="#ffffff" d=" M 890.40 199.41 C 892.33 198.72 894.34 200.06 895.29 201.71 C 897.17 204.80 896.67 208.57 896.77 212.02 C 896.77 215.20 896.73 218.86 894.31 221.27 C 892.65 223.06 889.59 222.77 888.16 220.88 C 885.33 217.34 885.30 212.42 885.67 208.12 C 886.04 204.83 886.99 200.79 890.40 199.41 Z" />
<path fill="#cd5c03" d=" M 106.32 216.67 C 108.76 233.24 115.74 249.38 127.56 261.42 C 131.14 265.21 135.07 268.65 139.27 271.74 C 139.26 275.16 139.25 278.58 139.25 282.00 C 128.24 282.00 117.24 282.00 106.23 282.00 C 106.29 260.22 106.12 238.44 106.32 216.67 Z" />
<path fill="#86858a" d=" M 730.23 236.07 C 736.38 232.88 737.71 246.26 731.35 245.77 C 727.71 244.16 727.70 238.65 730.23 236.07 Z" />
<path fill="#86858a" d=" M 843.16 245.83 C 838.35 244.68 838.78 236.84 843.03 235.05 C 847.83 236.30 848.25 244.89 843.16 245.83 Z" />
<path fill="#86858a" d=" M 646.00 236.75 C 652.60 236.74 659.20 236.71 665.80 236.77 C 665.80 239.35 665.79 241.94 665.77 244.53 C 661.31 244.52 656.85 244.58 652.40 244.45 C 652.14 248.87 652.29 253.30 652.27 257.73 C 656.51 257.74 660.75 257.74 665.00 257.74 C 664.99 260.24 664.99 262.75 665.00 265.26 C 660.76 265.26 656.51 265.26 652.27 265.27 C 652.26 270.24 652.25 275.21 652.26 280.19 C 657.02 280.24 661.77 280.17 666.53 280.25 C 666.51 282.80 666.53 285.36 666.60 287.91 C 659.73 288.12 652.86 287.94 646.00 288.00 C 646.00 270.92 646.00 253.83 646.00 236.75 Z" />
<path fill="#86858a" d=" M 827.33 258.08 C 828.77 254.41 831.01 250.04 835.65 250.33 C 835.80 253.33 835.84 256.34 835.81 259.35 C 831.59 258.26 828.70 262.32 828.45 266.09 C 828.00 273.38 828.39 280.70 828.26 288.00 C 826.16 288.00 824.07 288.00 822.00 288.01 C 821.91 275.73 822.19 263.45 821.84 251.18 C 823.63 251.19 825.44 251.20 827.25 251.22 C 827.23 253.50 827.26 255.79 827.33 258.08 Z" />
<path fill="#86858a" d=" M 671.24 251.21 C 673.05 251.21 674.88 251.20 676.71 251.20 C 676.84 253.03 676.96 254.86 677.08 256.71 C 678.68 253.32 681.83 249.87 685.97 250.60 C 691.53 251.62 693.16 258.05 693.60 262.86 C 694.04 271.23 693.67 279.62 693.79 288.00 C 691.67 288.00 689.55 287.99 687.44 287.96 C 687.44 280.35 687.59 272.73 687.39 265.13 C 687.21 262.35 686.43 258.42 683.06 258.03 C 679.65 258.16 677.96 262.01 677.84 264.98 C 677.69 272.65 677.84 280.32 677.79 288.00 C 675.68 288.00 673.57 288.00 671.47 288.00 C 671.33 275.74 671.77 263.46 671.24 251.21 Z" />
<path fill="#86858a" d=" M 700.87 257.97 C 702.42 253.90 706.21 249.86 710.94 250.56 C 713.89 250.92 715.69 253.49 717.01 255.89 C 717.09 254.33 717.19 252.77 717.30 251.21 C 719.08 251.20 720.86 251.19 722.66 251.17 C 722.37 261.44 722.59 271.73 722.54 282.00 C 722.32 288.20 722.37 295.17 718.12 300.16 C 713.73 305.03 705.81 304.68 700.79 300.97 C 701.26 298.59 701.70 296.19 702.09 293.80 C 705.22 295.98 709.80 297.87 713.19 295.16 C 716.80 291.86 716.13 286.51 716.61 282.11 C 715.04 284.64 713.12 287.44 709.87 287.74 C 705.44 288.25 702.06 284.35 700.63 280.55 C 697.98 273.35 698.10 265.12 700.87 257.97 Z" />
<path fill="#86858a" d=" M 728.79 251.20 C 730.85 251.20 732.91 251.20 734.99 251.20 C 735.02 263.47 734.98 275.73 735.00 288.00 C 732.91 288.00 730.82 288.00 728.74 288.00 C 728.76 275.73 728.66 263.46 728.79 251.20 Z" />
<path fill="#86858a" d=" M 741.55 251.20 C 743.33 251.19 745.13 251.19 746.93 251.18 C 747.05 252.98 747.16 254.78 747.26 256.58 C 748.73 254.31 750.26 251.69 753.05 250.90 C 756.01 249.76 759.47 251.25 761.13 253.85 C 763.61 257.71 763.97 262.48 764.02 266.95 C 763.99 273.97 764.00 280.98 764.00 288.00 C 761.91 288.00 759.82 288.00 757.75 288.00 C 757.68 280.62 757.82 273.24 757.70 265.86 C 757.48 263.01 757.10 259.08 753.86 258.11 C 750.20 257.62 748.27 261.79 748.07 264.85 C 747.89 272.56 748.05 280.28 748.00 288.00 C 745.91 288.00 743.82 288.00 741.74 288.00 C 741.62 275.73 741.98 263.46 741.55 251.20 Z" />
<path fill="#86858a" d=" M 772.47 255.41 C 774.43 252.24 778.15 249.93 781.97 250.54 C 785.09 250.93 787.59 253.34 788.87 256.11 C 791.20 261.03 791.53 266.65 791.08 272.01 C 785.59 271.99 780.11 271.99 774.64 272.02 C 774.95 275.33 775.77 279.27 779.01 280.95 C 782.20 282.66 785.90 281.40 789.02 280.17 C 789.31 282.21 789.64 284.25 790.02 286.29 C 785.68 289.04 779.56 289.95 775.17 286.86 C 771.10 283.96 769.51 278.82 768.98 274.07 C 768.31 267.73 769.03 260.92 772.47 255.41 Z" />
<path fill="#86858a" d=" M 798.09 256.02 C 800.00 252.56 803.85 249.90 807.94 250.53 C 811.15 250.91 813.66 253.43 814.95 256.27 C 817.21 261.16 817.54 266.71 817.08 272.02 C 811.60 271.99 806.13 271.99 800.66 272.01 C 800.92 275.33 801.77 279.23 804.98 280.93 C 808.18 282.68 811.92 281.40 815.06 280.15 C 815.34 282.30 815.64 284.45 815.89 286.61 C 811.95 288.46 807.23 289.74 803.04 287.91 C 798.38 285.91 796.08 280.85 795.27 276.12 C 794.16 269.38 794.69 262.06 798.09 256.02 Z" />
<path fill="#86858a" d=" M 840.00 251.21 C 842.08 251.21 844.15 251.21 846.25 251.21 C 846.28 263.47 846.26 275.73 846.26 288.00 C 844.16 287.99 842.08 288.00 840.00 288.00 C 840.00 275.74 840.00 263.47 840.00 251.21 Z" />
<path fill="#86858a" d=" M 852.37 251.40 C 854.21 251.24 856.07 251.16 857.93 251.15 C 858.04 252.96 858.15 254.77 858.26 256.58 C 859.73 254.30 861.28 251.67 864.10 250.89 C 867.08 249.77 870.57 251.29 872.19 253.95 C 874.45 257.51 874.90 261.87 875.01 266.00 C 875.01 273.33 874.98 280.67 875.00 288.00 C 872.91 288.00 870.82 288.00 868.75 288.00 C 868.68 280.64 868.82 273.29 868.70 265.93 C 868.49 263.05 868.12 259.05 864.82 258.10 C 861.16 257.65 859.27 261.85 859.06 264.91 C 858.89 272.60 859.05 280.30 859.00 288.00 C 856.91 288.00 854.82 288.00 852.74 288.00 C 852.51 275.80 853.21 263.57 852.37 251.40 Z" />
<path fill="#86858a" d=" M 882.08 258.08 C 883.59 254.05 887.23 250.03 891.90 250.52 C 894.97 250.78 896.85 253.39 898.29 255.81 C 898.38 254.24 898.51 252.67 898.68 251.11 C 900.41 251.15 902.15 251.17 903.90 251.19 C 903.61 262.45 903.95 273.71 903.73 284.97 C 903.37 290.46 902.96 296.68 898.78 300.76 C 894.24 305.06 886.84 304.49 882.02 300.96 C 882.51 298.61 882.92 296.25 883.27 293.88 C 886.48 295.79 890.79 297.89 894.25 295.31 C 898.03 292.15 897.32 286.70 897.99 282.32 C 896.16 284.63 894.27 287.55 891.01 287.75 C 886.74 288.14 883.44 284.53 882.03 280.86 C 879.18 273.64 879.33 265.29 882.08 258.08 Z" />
<path fill="#ffffff" d=" M 777.80 257.90 C 779.37 256.44 782.21 256.64 783.51 258.38 C 785.12 260.36 785.26 263.03 785.59 265.46 C 781.91 265.48 778.25 265.49 774.58 265.43 C 775.20 262.80 775.61 259.76 777.80 257.90 Z" />
<path fill="#ffffff" d=" M 803.86 257.85 C 805.45 256.45 808.23 256.67 809.53 258.40 C 811.13 260.38 811.23 263.04 811.61 265.45 C 807.94 265.48 804.26 265.49 800.60 265.44 C 801.21 262.78 801.60 259.69 803.86 257.85 Z" />
<path fill="#ffffff" d=" M 708.44 258.49 C 710.26 256.71 713.15 257.47 714.46 259.46 C 716.99 263.10 716.06 267.80 716.22 271.96 C 716.38 275.53 715.09 280.29 710.95 280.86 C 706.43 280.16 705.25 274.94 705.03 271.10 C 704.93 266.79 705.08 261.64 708.44 258.49 Z" />
<path fill="#ffffff" d=" M 890.20 258.14 C 893.55 255.90 896.91 259.87 897.21 263.05 C 897.62 267.36 897.79 271.80 897.01 276.08 C 896.44 279.15 892.89 282.18 889.88 280.03 C 886.41 277.16 886.16 272.11 886.27 267.95 C 886.55 264.46 887.08 260.29 890.20 258.14 Z" />
<path fill="#86858a" d=" M 104.48 285.75 C 156.16 285.71 207.84 285.75 259.52 285.74 C 259.49 307.77 259.62 329.80 259.46 351.83 C 207.82 351.77 156.18 351.78 104.54 351.83 C 104.39 329.80 104.50 307.77 104.48 285.75 Z" />
<path fill="#ffffff" d=" M 113.78 290.72 C 116.08 289.85 118.51 290.58 120.81 290.99 C 120.59 292.12 120.36 293.25 120.14 294.39 C 117.41 293.52 113.90 293.30 112.01 295.89 C 109.53 299.67 109.45 305.13 112.15 308.83 C 114.08 311.29 117.50 310.92 120.14 310.05 C 120.26 310.89 120.49 312.56 120.60 313.39 C 117.53 314.20 113.98 314.75 111.21 312.79 C 107.12 310.04 106.38 304.50 106.97 299.98 C 107.34 295.98 109.81 291.94 113.78 290.72 Z" />
<path fill="#ffffff" d=" M 128.43 290.52 C 131.63 289.50 135.32 291.27 136.82 294.21 C 139.37 299.01 139.36 305.10 136.94 309.95 C 135.22 313.36 130.88 315.31 127.30 313.64 C 122.97 311.67 121.74 306.33 121.79 302.00 C 121.85 297.46 123.63 291.97 128.43 290.52 Z" />
<path fill="#ffffff" d=" M 159.34 298.06 C 158.28 293.43 163.05 288.93 167.61 290.51 C 170.22 290.52 169.76 292.70 169.09 294.47 C 166.85 293.80 163.35 292.85 162.45 295.90 C 161.94 299.09 165.60 299.91 167.56 301.44 C 171.83 304.10 171.37 311.56 166.73 313.60 C 164.19 314.74 161.43 313.88 158.98 312.98 C 159.18 311.81 159.39 310.65 159.60 309.49 C 161.51 310.03 163.62 311.55 165.61 310.42 C 167.95 309.42 167.80 305.58 165.52 304.56 C 162.95 303.00 159.61 301.50 159.34 298.06 Z" />
<path fill="#ffffff" d=" M 200.33 290.52 C 204.78 290.54 209.24 290.53 213.70 290.53 C 213.73 291.66 213.76 292.80 213.79 293.95 C 212.02 293.96 210.25 293.98 208.48 294.01 C 208.49 300.64 208.42 307.26 208.53 313.88 C 207.43 313.93 206.34 313.97 205.25 314.02 C 205.27 307.35 205.27 300.68 205.25 294.01 C 203.56 293.98 201.88 293.97 200.20 293.95 C 200.24 292.80 200.28 291.66 200.33 290.52 Z" />
<path fill="#ffffff" d=" M 216.13 290.37 C 217.16 290.46 218.18 290.55 219.21 290.65 C 219.20 298.43 219.22 306.21 219.20 313.99 C 218.40 313.99 216.80 313.99 216.00 314.00 C 216.06 306.12 215.86 298.24 216.13 290.37 Z" />
<path fill="#ffffff" d=" M 234.30 290.44 C 235.28 290.52 236.27 290.60 237.25 290.68 C 237.14 298.45 237.24 306.22 237.20 313.99 C 236.39 313.99 234.77 313.99 233.96 313.99 C 231.27 308.06 228.43 302.21 226.08 296.14 C 225.90 302.09 226.04 308.04 225.99 313.99 C 225.25 313.99 223.75 313.99 223.01 314.00 C 223.00 306.16 222.99 298.33 223.01 290.50 C 224.26 290.53 225.50 290.56 226.75 290.60 C 229.47 296.44 232.14 302.30 234.63 308.25 C 234.12 302.33 234.24 296.38 234.30 290.44 Z" />
<path fill="#ffffff" d=" M 246.92 290.91 C 249.56 289.82 252.42 290.49 255.09 291.09 C 254.90 292.23 254.72 293.38 254.55 294.52 C 252.05 293.86 249.05 293.07 246.80 294.83 C 243.07 297.71 243.08 303.35 244.73 307.37 C 245.97 310.41 249.68 311.46 252.61 310.36 C 252.55 308.40 252.52 306.45 252.50 304.50 C 251.70 304.49 250.10 304.46 249.30 304.45 C 249.27 303.31 249.24 302.16 249.21 301.03 C 251.39 301.02 253.57 301.01 255.75 301.01 C 255.73 304.99 255.71 308.96 255.77 312.94 C 252.55 314.04 248.87 314.96 245.66 313.33 C 241.39 311.38 240.16 306.20 240.27 301.92 C 240.40 297.50 242.39 292.41 246.92 290.91 Z" />
<path fill="#ffffff" d=" M 141.55 290.54 C 142.45 290.54 144.25 290.54 145.15 290.54 C 147.89 296.38 150.83 302.15 152.89 308.28 C 152.87 302.35 152.72 296.42 152.80 290.49 C 153.56 290.54 155.07 290.63 155.82 290.68 C 155.63 298.45 155.78 306.23 155.74 314.01 C 154.60 313.97 153.47 313.94 152.33 313.90 C 149.72 307.75 146.67 301.78 144.34 295.50 C 144.57 301.66 144.44 307.83 144.47 314.00 C 143.74 314.00 142.27 313.99 141.54 313.99 C 141.53 306.17 141.51 298.36 141.55 290.54 Z" />
<path fill="#ffffff" d=" M 173.53 290.51 C 174.27 290.51 175.76 290.52 176.51 290.52 C 177.42 296.52 175.77 302.79 177.47 308.68 C 178.31 311.52 182.75 311.48 183.55 308.63 C 185.25 302.75 183.52 296.49 184.54 290.52 C 185.27 290.52 186.74 290.51 187.47 290.50 C 187.32 295.99 187.79 301.50 187.22 306.97 C 186.96 310.34 184.74 314.11 180.99 314.21 C 177.72 314.71 174.74 312.19 174.17 309.06 C 172.88 302.97 173.80 296.68 173.53 290.51 Z" />
<path fill="#ffffff" d=" M 191.25 313.99 C 191.44 306.17 190.92 298.32 191.50 290.53 C 192.24 290.52 193.73 290.50 194.47 290.49 C 194.51 297.17 194.40 303.86 194.53 310.55 C 197.03 310.49 199.54 310.52 202.04 310.60 C 202.03 311.45 201.99 313.15 201.98 313.99 C 198.40 314.00 194.83 314.00 191.25 313.99 Z" />
<path fill="#86858a" d=" M 128.26 294.18 C 130.82 292.57 133.83 294.71 134.50 297.33 C 135.71 301.39 135.85 306.54 132.84 309.87 C 130.68 311.96 127.06 310.47 126.24 307.78 C 124.59 303.46 124.50 297.42 128.26 294.18 Z" />
<path fill="#ffffff" d=" M 107.80 323.01 C 111.27 323.00 114.74 323.00 118.21 323.01 C 118.20 323.87 118.19 325.60 118.18 326.46 C 115.76 326.42 113.34 326.46 110.92 326.57 C 110.97 328.55 111.00 330.54 111.01 332.53 C 113.23 332.53 115.46 332.53 117.68 332.53 C 117.72 333.66 117.76 334.81 117.80 335.95 C 115.53 335.98 113.26 335.99 111.00 336.01 C 110.99 338.33 111.00 340.67 111.00 343.00 C 113.49 343.00 115.98 343.00 118.48 343.01 C 118.47 343.87 118.46 345.60 118.45 346.47 C 114.90 346.47 111.36 346.47 107.81 346.46 C 107.78 338.64 107.79 330.83 107.80 323.01 Z" />
<path fill="#ffffff" d=" M 120.53 323.02 C 121.44 323.01 123.24 323.00 124.15 323.00 C 126.94 328.66 129.43 334.47 131.94 340.27 C 131.80 334.51 131.75 328.75 131.81 322.99 C 132.54 323.01 134.02 323.03 134.76 323.04 C 134.74 330.82 134.67 338.61 134.80 346.39 C 133.64 346.39 132.49 346.40 131.34 346.41 C 128.69 340.18 125.57 334.16 123.31 327.78 C 123.60 334.01 123.43 340.24 123.46 346.47 C 122.72 346.47 121.26 346.45 120.53 346.45 C 120.53 338.64 120.52 330.83 120.53 323.02 Z" />
<path fill="#ffffff" d=" M 141.99 324.04 C 144.94 322.30 148.48 322.78 151.62 323.60 C 151.45 324.46 151.11 326.18 150.94 327.04 C 148.28 326.18 144.98 325.57 142.77 327.77 C 139.36 331.18 139.43 337.17 141.96 341.07 C 143.51 343.40 146.53 343.43 149.01 343.08 C 149.00 341.05 149.00 339.02 149.01 337.00 C 148.20 336.99 146.59 336.99 145.79 336.99 C 145.80 336.12 145.81 334.39 145.81 333.53 C 147.94 333.53 150.06 333.53 152.19 333.54 C 151.90 337.51 152.87 341.78 151.74 345.58 C 148.49 346.93 144.56 347.33 141.43 345.44 C 138.13 343.55 136.99 339.49 136.79 335.94 C 136.59 331.51 137.92 326.41 141.99 324.04 Z" />
<path fill="#ffffff" d=" M 154.54 323.00 C 155.34 323.00 156.94 323.02 157.74 323.02 C 157.77 330.79 157.63 338.55 157.83 346.32 C 157.01 346.36 155.36 346.46 154.53 346.50 C 154.53 338.67 154.52 330.83 154.54 323.00 Z" />
<path fill="#ffffff" d=" M 160.79 322.96 C 162.06 323.02 163.33 323.09 164.60 323.17 C 167.19 328.81 169.59 334.54 172.29 340.11 C 171.89 334.42 172.01 328.71 172.00 323.00 C 172.75 323.00 174.25 323.00 174.99 323.00 C 175.00 330.83 175.00 338.65 174.99 346.47 C 174.18 346.48 172.55 346.48 171.73 346.48 C 168.89 340.31 165.91 334.18 163.53 327.80 C 163.90 334.03 163.70 340.27 163.71 346.50 C 162.98 346.48 161.53 346.45 160.80 346.44 C 160.79 338.61 160.79 330.79 160.79 322.96 Z" />
<path fill="#ffffff" d=" M 178.01 323.00 C 181.49 323.00 184.97 323.00 188.46 323.00 C 188.46 323.87 188.47 325.59 188.47 326.46 C 186.05 326.46 183.64 326.47 181.22 326.48 C 181.22 328.49 181.23 330.51 181.23 332.53 C 183.48 332.53 185.73 332.53 187.98 332.53 C 187.99 333.40 187.99 335.13 188.00 335.99 C 185.73 335.99 183.47 335.99 181.21 336.00 C 181.20 338.33 181.20 340.66 181.20 343.00 C 183.72 343.00 186.25 343.01 188.77 343.03 C 188.75 344.18 188.72 345.32 188.70 346.47 C 185.16 346.45 181.62 346.46 178.08 346.51 C 177.92 338.68 178.03 330.84 178.01 323.00 Z" />
<path fill="#ffffff" d=" M 190.81 323.01 C 194.27 323.00 197.74 323.00 201.21 323.01 C 201.20 323.88 201.19 325.60 201.19 326.47 C 198.81 326.47 196.44 326.46 194.07 326.42 C 194.02 328.45 193.99 330.48 193.97 332.53 C 196.21 332.52 198.44 332.53 200.68 332.53 C 200.72 333.66 200.77 334.80 200.81 335.94 C 198.54 335.97 196.27 335.99 194.00 336.01 C 193.99 338.34 193.99 340.67 194.00 343.00 C 196.49 343.00 198.98 343.00 201.48 343.00 C 201.47 343.87 201.46 345.60 201.45 346.46 C 197.90 346.48 194.36 346.48 190.81 346.46 C 190.78 338.64 190.79 330.83 190.81 323.01 Z" />
<path fill="#ffffff" d=" M 203.61 323.07 C 207.09 322.95 211.49 321.86 214.12 324.86 C 216.57 328.10 215.48 332.72 212.59 335.29 C 215.08 338.47 215.05 342.69 216.04 346.44 C 215.22 346.46 213.59 346.48 212.77 346.49 C 212.12 343.75 211.82 340.92 210.89 338.26 C 210.23 336.49 208.19 336.91 206.73 336.61 C 206.59 339.88 207.11 343.23 206.44 346.47 C 205.71 346.48 204.26 346.50 203.53 346.52 C 203.57 338.70 203.43 330.89 203.61 323.07 Z" />
<path fill="#ffffff" d=" M 218.01 323.00 C 218.80 323.00 220.40 323.01 221.20 323.01 C 221.24 330.77 221.17 338.52 221.24 346.28 C 220.22 346.41 219.20 346.55 218.18 346.70 C 217.80 338.81 218.09 330.90 218.01 323.00 Z" />
<path fill="#ffffff" d=" M 224.01 323.00 C 225.23 323.00 226.46 323.00 227.69 323.01 C 230.46 328.78 232.98 334.66 235.61 340.48 C 235.10 334.67 235.27 328.83 235.27 323.00 C 236.00 323.00 237.47 323.01 238.20 323.01 C 238.24 330.79 238.13 338.58 238.27 346.36 C 237.12 346.39 235.98 346.38 234.85 346.40 C 232.29 340.47 229.38 334.69 227.12 328.63 C 226.87 334.58 227.05 340.52 227.00 346.47 C 226.25 346.47 224.76 346.48 224.01 346.48 C 224.00 338.65 224.00 330.83 224.01 323.00 Z" />
<path fill="#ffffff" d=" M 242.22 327.32 C 244.72 322.84 250.71 321.79 255.15 323.82 C 255.01 324.59 254.73 326.14 254.59 326.91 C 251.96 326.32 248.81 325.57 246.55 327.53 C 242.89 330.72 242.99 336.73 245.21 340.73 C 246.68 343.29 249.87 343.45 252.48 343.14 C 252.50 341.10 252.52 339.06 252.55 337.03 C 251.71 337.00 250.04 336.95 249.21 336.92 C 249.24 335.79 249.27 334.66 249.31 333.54 C 251.43 333.53 253.57 333.53 255.70 333.52 C 255.75 337.54 255.76 341.56 255.68 345.59 C 251.53 347.01 246.28 347.56 243.08 343.92 C 239.44 339.31 239.44 332.35 242.22 327.32 Z" />
<path fill="#86858a" d=" M 206.79 325.90 C 208.94 325.77 212.18 326.06 212.23 328.93 C 213.04 332.26 209.62 334.13 206.73 333.63 C 206.73 331.05 206.74 328.47 206.79 325.90 Z" />
</svg>
